<?xml version="1.0" encoding="utf-8" standalone="no"?>
<!DOCTYPE svg PUBLIC "-//W3C//DTD SVG 1.1//EN"
  "http://www.w3.org/Graphics/SVG/1.1/DTD/svg11.dtd">
<svg xmlns:xlink="http://www.w3.org/1999/xlink" width="334.8pt" height="318.413722pt" viewBox="0 0 334.8 318.413722" xmlns="http://www.w3.org/2000/svg" version="1.1">
 <metadata>
  <rdf:RDF xmlns:dc="http://purl.org/dc/elements/1.1/" xmlns:cc="http://creativecommons.org/ns#" xmlns:rdf="http://www.w3.org/1999/02/22-rdf-syntax-ns#">
   <cc:Work>
    <dc:type rdf:resource="http://purl.org/dc/dcmitype/StillImage"/>
    <dc:date>2025-04-15T23:27:56.130297</dc:date>
    <dc:format>image/svg+xml</dc:format>
    <dc:creator>
     <cc:Agent>
      <dc:title>Matplotlib v3.8.0, https://matplotlib.org/</dc:title>
     </cc:Agent>
    </dc:creator>
   </cc:Work>
  </rdf:RDF>
 </metadata>
 <defs>
  <style type="text/css">*{stroke-linejoin: round; stroke-linecap: butt}</style>
 </defs>
 <g id="figure_1">
  <g id="axes_1">
   <g id="patch_1">
    <path d="M 0 318.413722 
L 334.8 318.413722 
L 334.8 0 
L 0 0 
z
" style="fill: #ffffff"/>
   </g>
   <g id="patch_2">
    <path d="M 167.4 14.473351 
L 15.218182 125.039914 
L 73.346464 303.940371 
z
" clip-path="url(#p78eaaface0)" style="fill: #808080; opacity: 0.5; stroke: #808080; stroke-linejoin: miter"/>
   </g>
   <g id="patch_3">
    <path d="M 167.4 14.473351 
L 15.218182 125.039914 
L 261.453536 303.940371 
z
" clip-path="url(#p78eaaface0)" style="fill: #808080; opacity: 0.5; stroke: #808080; stroke-linejoin: miter"/>
   </g>
   <g id="patch_4">
    <path d="M 167.4 14.473351 
L 15.218182 125.039914 
L 319.581818 125.039914 
z
" clip-path="url(#p78eaaface0)" style="fill: #808080; opacity: 0.5; stroke: #808080; stroke-linejoin: miter"/>
   </g>
   <g id="patch_5">
    <path d="M 167.4 14.473351 
L 73.346464 303.940371 
L 261.453536 303.940371 
z
" clip-path="url(#p78eaaface0)" style="fill: #808080; opacity: 0.5; stroke: #808080; stroke-linejoin: miter"/>
   </g>
   <g id="patch_6">
    <path d="M 167.4 14.473351 
L 73.346464 303.940371 
L 319.581818 125.039914 
z
" clip-path="url(#p78eaaface0)" style="fill: #808080; opacity: 0.5; stroke: #808080; stroke-linejoin: miter"/>
   </g>
   <g id="patch_7">
    <path d="M 167.4 14.473351 
L 261.453536 303.940371 
L 319.581818 125.039914 
z
" clip-path="url(#p78eaaface0)" style="fill: #808080; opacity: 0.5; stroke: #808080; stroke-linejoin: miter"/>
   </g>
   <g id="patch_8">
    <path d="M 15.218182 125.039914 
L 73.346464 303.940371 
L 261.453536 303.940371 
z
" clip-path="url(#p78eaaface0)" style="fill: #808080; opacity: 0.5; stroke: #808080; stroke-linejoin: miter"/>
   </g>
   <g id="patch_9">
    <path d="M 15.218182 125.039914 
L 73.346464 303.940371 
L 319.581818 125.039914 
z
" clip-path="url(#p78eaaface0)" style="fill: #808080; opacity: 0.5; stroke: #808080; stroke-linejoin: miter"/>
   </g>
   <g id="patch_10">
    <path d="M 15.218182 125.039914 
L 261.453536 303.940371 
L 319.581818 125.039914 
z
" clip-path="url(#p78eaaface0)" style="fill: #808080; opacity: 0.5; stroke: #808080; stroke-linejoin: miter"/>
   </g>
   <g id="patch_11">
    <path d="M 73.346464 303.940371 
L 261.453536 303.940371 
L 319.581818 125.039914 
z
" clip-path="url(#p78eaaface0)" style="fill: #808080; opacity: 0.5; stroke: #808080; stroke-linejoin: miter"/>
   </g>
   <g id="matplotlib.axis_1"/>
   <g id="matplotlib.axis_2"/>
   <g id="line2d_1">
    <path d="M 167.4 14.473351 
L 15.218182 125.039914 
" clip-path="url(#p78eaaface0)" style="fill: none; stroke: #000000; stroke-width: 2; stroke-linecap: square"/>
   </g>
   <g id="line2d_2">
    <path d="M 167.4 14.473351 
L 73.346464 303.940371 
" clip-path="url(#p78eaaface0)" style="fill: none; stroke: #000000; stroke-width: 2; stroke-linecap: square"/>
   </g>
   <g id="line2d_3">
    <path d="M 167.4 14.473351 
L 261.453536 303.940371 
" clip-path="url(#p78eaaface0)" style="fill: none; stroke: #000000; stroke-width: 2; stroke-linecap: square"/>
   </g>
   <g id="line2d_4">
    <path d="M 167.4 14.473351 
L 319.581818 125.039914 
" clip-path="url(#p78eaaface0)" style="fill: none; stroke: #000000; stroke-width: 2; stroke-linecap: square"/>
   </g>
   <g id="line2d_5">
    <path d="M 15.218182 125.039914 
L 73.346464 303.940371 
" clip-path="url(#p78eaaface0)" style="fill: none; stroke: #000000; stroke-width: 2; stroke-linecap: square"/>
   </g>
   <g id="line2d_6">
    <path d="M 15.218182 125.039914 
L 261.453536 303.940371 
" clip-path="url(#p78eaaface0)" style="fill: none; stroke: #000000; stroke-width: 2; stroke-linecap: square"/>
   </g>
   <g id="line2d_7">
    <path d="M 15.218182 125.039914 
L 319.581818 125.039914 
" clip-path="url(#p78eaaface0)" style="fill: none; stroke: #000000; stroke-width: 2; stroke-linecap: square"/>
   </g>
   <g id="line2d_8">
    <path d="M 73.346464 303.940371 
L 261.453536 303.940371 
" clip-path="url(#p78eaaface0)" style="fill: none; stroke: #000000; stroke-width: 2; stroke-linecap: square"/>
   </g>
   <g id="line2d_9">
    <path d="M 73.346464 303.940371 
L 319.581818 125.039914 
" clip-path="url(#p78eaaface0)" style="fill: none; stroke: #000000; stroke-width: 2; stroke-linecap: square"/>
   </g>
   <g id="line2d_10">
    <path d="M 261.453536 303.940371 
L 319.581818 125.039914 
" clip-path="url(#p78eaaface0)" style="fill: none; stroke: #000000; stroke-width: 2; stroke-linecap: square"/>
   </g>
   <g id="PathCollection_1">
    <defs>
     <path id="me4e1b73dd4" d="M 0 8.660254 
C 2.296726 8.660254 4.499694 7.747755 6.123724 6.123724 
C 7.747755 4.499694 8.660254 2.296726 8.660254 0 
C 8.660254 -2.296726 7.747755 -4.499694 6.123724 -6.123724 
C 4.499694 -7.747755 2.296726 -8.660254 0 -8.660254 
C -2.296726 -8.660254 -4.499694 -7.747755 -6.123724 -6.123724 
C -7.747755 -4.499694 -8.660254 -2.296726 -8.660254 0 
C -8.660254 2.296726 -7.747755 4.499694 -6.123724 6.123724 
C -4.499694 7.747755 -2.296726 8.660254 0 8.660254 
z
" style="stroke: #000000"/>
    </defs>
    <g clip-path="url(#p78eaaface0)">
     <use xlink:href="#me4e1b73dd4" x="167.4" y="14.473351" style="fill: #ffffff; stroke: #000000"/>
    </g>
   </g>
   <g id="PathCollection_2">
    <g clip-path="url(#p78eaaface0)">
     <use xlink:href="#me4e1b73dd4" x="15.218182" y="125.039914" style="fill: #ffffff; stroke: #000000"/>
    </g>
   </g>
   <g id="PathCollection_3">
    <g clip-path="url(#p78eaaface0)">
     <use xlink:href="#me4e1b73dd4" x="73.346464" y="303.940371" style="fill: #ffffff; stroke: #000000"/>
    </g>
   </g>
   <g id="PathCollection_4">
    <g clip-path="url(#p78eaaface0)">
     <use xlink:href="#me4e1b73dd4" x="261.453536" y="303.940371" style="fill: #ffffff; stroke: #000000"/>
    </g>
   </g>
   <g id="PathCollection_5">
    <g clip-path="url(#p78eaaface0)">
     <use xlink:href="#me4e1b73dd4" x="319.581818" y="125.039914" style="fill: #ffffff; stroke: #000000"/>
    </g>
   </g>
   <g id="text_1">
    <!-- 0 -->
    <g transform="translate(162.529531 19.616583) scale(0.14 -0.14)">
     <defs>
      <path id="DejaVuSans-Bold-30" d="M 2944 2338 
Q 2944 3213 2780 3570 
Q 2616 3928 2228 3928 
Q 1841 3928 1675 3570 
Q 1509 3213 1509 2338 
Q 1509 1453 1675 1090 
Q 1841 728 2228 728 
Q 2613 728 2778 1090 
Q 2944 1453 2944 2338 
z
M 4147 2328 
Q 4147 1169 3647 539 
Q 3147 -91 2228 -91 
Q 1306 -91 806 539 
Q 306 1169 306 2328 
Q 306 3491 806 4120 
Q 1306 4750 2228 4750 
Q 3147 4750 3647 4120 
Q 4147 3491 4147 2328 
z
" transform="scale(0.015625)"/>
     </defs>
     <use xlink:href="#DejaVuSans-Bold-30"/>
    </g>
   </g>
   <g id="text_2">
    <!-- 1 -->
    <g transform="translate(10.347713 130.183146) scale(0.14 -0.14)">
     <defs>
      <path id="DejaVuSans-Bold-31" d="M 750 831 
L 1813 831 
L 1813 3847 
L 722 3622 
L 722 4441 
L 1806 4666 
L 2950 4666 
L 2950 831 
L 4013 831 
L 4013 0 
L 750 0 
L 750 831 
z
" transform="scale(0.015625)"/>
     </defs>
     <use xlink:href="#DejaVuSans-Bold-31"/>
    </g>
   </g>
   <g id="text_3">
    <!-- 2 -->
    <g transform="translate(68.475995 309.083603) scale(0.14 -0.14)">
     <defs>
      <path id="DejaVuSans-Bold-32" d="M 1844 884 
L 3897 884 
L 3897 0 
L 506 0 
L 506 884 
L 2209 2388 
Q 2438 2594 2547 2791 
Q 2656 2988 2656 3200 
Q 2656 3528 2436 3728 
Q 2216 3928 1850 3928 
Q 1569 3928 1234 3808 
Q 900 3688 519 3450 
L 519 4475 
Q 925 4609 1322 4679 
Q 1719 4750 2100 4750 
Q 2938 4750 3402 4381 
Q 3866 4013 3866 3353 
Q 3866 2972 3669 2642 
Q 3472 2313 2841 1759 
L 1844 884 
z
" transform="scale(0.015625)"/>
     </defs>
     <use xlink:href="#DejaVuSans-Bold-32"/>
    </g>
   </g>
   <g id="text_4">
    <!-- 3 -->
    <g transform="translate(256.583067 309.083603) scale(0.14 -0.14)">
     <defs>
      <path id="DejaVuSans-Bold-33" d="M 2981 2516 
Q 3453 2394 3698 2092 
Q 3944 1791 3944 1325 
Q 3944 631 3412 270 
Q 2881 -91 1863 -91 
Q 1503 -91 1142 -33 
Q 781 25 428 141 
L 428 1069 
Q 766 900 1098 814 
Q 1431 728 1753 728 
Q 2231 728 2486 893 
Q 2741 1059 2741 1369 
Q 2741 1688 2480 1852 
Q 2219 2016 1709 2016 
L 1228 2016 
L 1228 2791 
L 1734 2791 
Q 2188 2791 2409 2933 
Q 2631 3075 2631 3366 
Q 2631 3634 2415 3781 
Q 2200 3928 1806 3928 
Q 1516 3928 1219 3862 
Q 922 3797 628 3669 
L 628 4550 
Q 984 4650 1334 4700 
Q 1684 4750 2022 4750 
Q 2931 4750 3382 4451 
Q 3834 4153 3834 3553 
Q 3834 3144 3618 2883 
Q 3403 2622 2981 2516 
z
" transform="scale(0.015625)"/>
     </defs>
     <use xlink:href="#DejaVuSans-Bold-33"/>
    </g>
   </g>
   <g id="text_5">
    <!-- 4 -->
    <g transform="translate(314.711349 130.183146) scale(0.14 -0.14)">
     <defs>
      <path id="DejaVuSans-Bold-34" d="M 2356 3675 
L 1038 1722 
L 2356 1722 
L 2356 3675 
z
M 2156 4666 
L 3494 4666 
L 3494 1722 
L 4159 1722 
L 4159 850 
L 3494 850 
L 3494 0 
L 2356 0 
L 2356 850 
L 288 850 
L 288 1881 
L 2156 4666 
z
" transform="scale(0.015625)"/>
     </defs>
     <use xlink:href="#DejaVuSans-Bold-34"/>
    </g>
   </g>
  </g>
 </g>
 <defs>
  <clipPath id="p78eaaface0">
   <rect x="0" y="0" width="334.8" height="318.413722"/>
  </clipPath>
 </defs>
</svg>
