<?xml version="1.0" encoding="utf-8" standalone="no"?>
<!DOCTYPE svg PUBLIC "-//W3C//DTD SVG 1.1//EN"
  "http://www.w3.org/Graphics/SVG/1.1/DTD/svg11.dtd">
<svg xmlns:xlink="http://www.w3.org/1999/xlink" width="424.8pt" height="404.713594pt" viewBox="0 0 424.8 404.713594" xmlns="http://www.w3.org/2000/svg" version="1.1">
 <metadata>
  <rdf:RDF xmlns:dc="http://purl.org/dc/elements/1.1/" xmlns:cc="http://creativecommons.org/ns#" xmlns:rdf="http://www.w3.org/1999/02/22-rdf-syntax-ns#">
   <cc:Work>
    <dc:type rdf:resource="http://purl.org/dc/dcmitype/StillImage"/>
    <dc:date>2025-04-16T01:25:30.649924</dc:date>
    <dc:format>image/svg+xml</dc:format>
    <dc:creator>
     <cc:Agent>
      <dc:title>Matplotlib v3.8.0, https://matplotlib.org/</dc:title>
     </cc:Agent>
    </dc:creator>
   </cc:Work>
  </rdf:RDF>
 </metadata>
 <defs>
  <style type="text/css">*{stroke-linejoin: round; stroke-linecap: butt}</style>
 </defs>
 <g id="figure_1">
  <g id="patch_1">
   <path d="M 0 404.713594 
L 424.8 404.713594 
L 424.8 0 
L 0 0 
z
" style="fill: #ffffff"/>
  </g>
  <g id="axes_1">
   <g id="patch_2">
    <path d="M 7.2 397.513594 
L 417.6 397.513594 
L 417.6 7.2 
L 7.2 7.2 
z
" style="fill: #ffffff"/>
   </g>
   <g id="patch_3">
    <path d="M 212.4 14.706031 
L 15.092308 158.05846 
L 90.45714 390.007564 
z
" clip-path="url(#pf5df58a381)" style="fill: #4682b4; opacity: 0.3"/>
   </g>
   <g id="patch_4">
    <path d="M 212.4 14.706031 
L 15.092308 158.05846 
L 334.34286 390.007564 
z
" clip-path="url(#pf5df58a381)" style="fill: #4682b4; opacity: 0.3"/>
   </g>
   <g id="patch_5">
    <path d="M 212.4 14.706031 
L 15.092308 158.05846 
L 409.707692 158.05846 
z
" clip-path="url(#pf5df58a381)" style="fill: #4682b4; opacity: 0.3"/>
   </g>
   <g id="patch_6">
    <path d="M 212.4 14.706031 
L 90.45714 390.007564 
L 334.34286 390.007564 
z
" clip-path="url(#pf5df58a381)" style="fill: #4682b4; opacity: 0.3"/>
   </g>
   <g id="patch_7">
    <path d="M 212.4 14.706031 
L 90.45714 390.007564 
L 409.707692 158.05846 
z
" clip-path="url(#pf5df58a381)" style="fill: #4682b4; opacity: 0.3"/>
   </g>
   <g id="patch_8">
    <path d="M 212.4 14.706031 
L 334.34286 390.007564 
L 409.707692 158.05846 
z
" clip-path="url(#pf5df58a381)" style="fill: #4682b4; opacity: 0.3"/>
   </g>
   <g id="patch_9">
    <path d="M 15.092308 158.05846 
L 90.45714 390.007564 
L 334.34286 390.007564 
z
" clip-path="url(#pf5df58a381)" style="fill: #4682b4; opacity: 0.3"/>
   </g>
   <g id="patch_10">
    <path d="M 15.092308 158.05846 
L 90.45714 390.007564 
L 409.707692 158.05846 
z
" clip-path="url(#pf5df58a381)" style="fill: #4682b4; opacity: 0.3"/>
   </g>
   <g id="patch_11">
    <path d="M 15.092308 158.05846 
L 334.34286 390.007564 
L 409.707692 158.05846 
z
" clip-path="url(#pf5df58a381)" style="fill: #4682b4; opacity: 0.3"/>
   </g>
   <g id="patch_12">
    <path d="M 90.45714 390.007564 
L 334.34286 390.007564 
L 409.707692 158.05846 
z
" clip-path="url(#pf5df58a381)" style="fill: #4682b4; opacity: 0.3"/>
   </g>
   <g id="matplotlib.axis_1"/>
   <g id="matplotlib.axis_2"/>
   <g id="line2d_1">
    <path d="M 212.4 14.706031 
L 15.092308 158.05846 
" clip-path="url(#pf5df58a381)" style="fill: none; stroke: #000000; stroke-linecap: square"/>
   </g>
   <g id="line2d_2">
    <path d="M 212.4 14.706031 
L 90.45714 390.007564 
" clip-path="url(#pf5df58a381)" style="fill: none; stroke: #000000; stroke-linecap: square"/>
   </g>
   <g id="line2d_3">
    <path d="M 212.4 14.706031 
L 334.34286 390.007564 
" clip-path="url(#pf5df58a381)" style="fill: none; stroke: #000000; stroke-linecap: square"/>
   </g>
   <g id="line2d_4">
    <path d="M 212.4 14.706031 
L 409.707692 158.05846 
" clip-path="url(#pf5df58a381)" style="fill: none; stroke: #000000; stroke-linecap: square"/>
   </g>
   <g id="line2d_5">
    <path d="M 15.092308 158.05846 
L 90.45714 390.007564 
" clip-path="url(#pf5df58a381)" style="fill: none; stroke: #000000; stroke-linecap: square"/>
   </g>
   <g id="line2d_6">
    <path d="M 15.092308 158.05846 
L 334.34286 390.007564 
" clip-path="url(#pf5df58a381)" style="fill: none; stroke: #000000; stroke-linecap: square"/>
   </g>
   <g id="line2d_7">
    <path d="M 15.092308 158.05846 
L 409.707692 158.05846 
" clip-path="url(#pf5df58a381)" style="fill: none; stroke: #000000; stroke-linecap: square"/>
   </g>
   <g id="line2d_8">
    <path d="M 90.45714 390.007564 
L 334.34286 390.007564 
" clip-path="url(#pf5df58a381)" style="fill: none; stroke: #000000; stroke-linecap: square"/>
   </g>
   <g id="line2d_9">
    <path d="M 90.45714 390.007564 
L 409.707692 158.05846 
" clip-path="url(#pf5df58a381)" style="fill: none; stroke: #000000; stroke-linecap: square"/>
   </g>
   <g id="line2d_10">
    <path d="M 334.34286 390.007564 
L 409.707692 158.05846 
" clip-path="url(#pf5df58a381)" style="fill: none; stroke: #000000; stroke-linecap: square"/>
   </g>
   <g id="PathCollection_1">
    <defs>
     <path id="m8605ecd488" d="M 0 7.071068 
C 1.875269 7.071068 3.673985 6.326016 5 5 
C 6.326016 3.673985 7.071068 1.875269 7.071068 0 
C 7.071068 -1.875269 6.326016 -3.673985 5 -5 
C 3.673985 -6.326016 1.875269 -7.071068 0 -7.071068 
C -1.875269 -7.071068 -3.673985 -6.326016 -5 -5 
C -6.326016 -3.673985 -7.071068 -1.875269 -7.071068 0 
C -7.071068 1.875269 -6.326016 3.673985 -5 5 
C -3.673985 6.326016 -1.875269 7.071068 0 7.071068 
z
" style="stroke: #000000"/>
    </defs>
    <g>
     <use xlink:href="#m8605ecd488" x="212.4" y="14.706031" style="fill: #fec7b8; stroke: #000000"/>
     <use xlink:href="#m8605ecd488" x="15.092308" y="158.05846" style="fill: #fec7b8; stroke: #000000"/>
     <use xlink:href="#m8605ecd488" x="90.45714" y="390.007564" style="fill: #fec7b8; stroke: #000000"/>
     <use xlink:href="#m8605ecd488" x="334.34286" y="390.007564" style="fill: #fec7b8; stroke: #000000"/>
     <use xlink:href="#m8605ecd488" x="409.707692" y="158.05846" style="fill: #fec7b8; stroke: #000000"/>
    </g>
   </g>
   <g id="text_1">
    <!-- 0 -->
    <g transform="translate(209.21875 17.465406) scale(0.1 -0.1)">
     <defs>
      <path id="DejaVuSans-30" d="M 2034 4250 
Q 1547 4250 1301 3770 
Q 1056 3291 1056 2328 
Q 1056 1369 1301 889 
Q 1547 409 2034 409 
Q 2525 409 2770 889 
Q 3016 1369 3016 2328 
Q 3016 3291 2770 3770 
Q 2525 4250 2034 4250 
z
M 2034 4750 
Q 2819 4750 3233 4129 
Q 3647 3509 3647 2328 
Q 3647 1150 3233 529 
Q 2819 -91 2034 -91 
Q 1250 -91 836 529 
Q 422 1150 422 2328 
Q 422 3509 836 4129 
Q 1250 4750 2034 4750 
z
" transform="scale(0.015625)"/>
     </defs>
     <use xlink:href="#DejaVuSans-30"/>
    </g>
   </g>
   <g id="text_2">
    <!-- 1 -->
    <g transform="translate(11.911058 160.817835) scale(0.1 -0.1)">
     <defs>
      <path id="DejaVuSans-31" d="M 794 531 
L 1825 531 
L 1825 4091 
L 703 3866 
L 703 4441 
L 1819 4666 
L 2450 4666 
L 2450 531 
L 3481 531 
L 3481 0 
L 794 0 
L 794 531 
z
" transform="scale(0.015625)"/>
     </defs>
     <use xlink:href="#DejaVuSans-31"/>
    </g>
   </g>
   <g id="text_3">
    <!-- 2 -->
    <g transform="translate(87.27589 392.766939) scale(0.1 -0.1)">
     <defs>
      <path id="DejaVuSans-32" d="M 1228 531 
L 3431 531 
L 3431 0 
L 469 0 
L 469 531 
Q 828 903 1448 1529 
Q 2069 2156 2228 2338 
Q 2531 2678 2651 2914 
Q 2772 3150 2772 3378 
Q 2772 3750 2511 3984 
Q 2250 4219 1831 4219 
Q 1534 4219 1204 4116 
Q 875 4013 500 3803 
L 500 4441 
Q 881 4594 1212 4672 
Q 1544 4750 1819 4750 
Q 2544 4750 2975 4387 
Q 3406 4025 3406 3419 
Q 3406 3131 3298 2873 
Q 3191 2616 2906 2266 
Q 2828 2175 2409 1742 
Q 1991 1309 1228 531 
z
" transform="scale(0.015625)"/>
     </defs>
     <use xlink:href="#DejaVuSans-32"/>
    </g>
   </g>
   <g id="text_4">
    <!-- 3 -->
    <g transform="translate(331.16161 392.766939) scale(0.1 -0.1)">
     <defs>
      <path id="DejaVuSans-33" d="M 2597 2516 
Q 3050 2419 3304 2112 
Q 3559 1806 3559 1356 
Q 3559 666 3084 287 
Q 2609 -91 1734 -91 
Q 1441 -91 1130 -33 
Q 819 25 488 141 
L 488 750 
Q 750 597 1062 519 
Q 1375 441 1716 441 
Q 2309 441 2620 675 
Q 2931 909 2931 1356 
Q 2931 1769 2642 2001 
Q 2353 2234 1838 2234 
L 1294 2234 
L 1294 2753 
L 1863 2753 
Q 2328 2753 2575 2939 
Q 2822 3125 2822 3475 
Q 2822 3834 2567 4026 
Q 2313 4219 1838 4219 
Q 1578 4219 1281 4162 
Q 984 4106 628 3988 
L 628 4550 
Q 988 4650 1302 4700 
Q 1616 4750 1894 4750 
Q 2613 4750 3031 4423 
Q 3450 4097 3450 3541 
Q 3450 3153 3228 2886 
Q 3006 2619 2597 2516 
z
" transform="scale(0.015625)"/>
     </defs>
     <use xlink:href="#DejaVuSans-33"/>
    </g>
   </g>
   <g id="text_5">
    <!-- 4 -->
    <g transform="translate(406.526442 160.817835) scale(0.1 -0.1)">
     <defs>
      <path id="DejaVuSans-34" d="M 2419 4116 
L 825 1625 
L 2419 1625 
L 2419 4116 
z
M 2253 4666 
L 3047 4666 
L 3047 1625 
L 3713 1625 
L 3713 1100 
L 3047 1100 
L 3047 0 
L 2419 0 
L 2419 1100 
L 313 1100 
L 313 1709 
L 2253 4666 
z
" transform="scale(0.015625)"/>
     </defs>
     <use xlink:href="#DejaVuSans-34"/>
    </g>
   </g>
  </g>
 </g>
 <defs>
  <clipPath id="pf5df58a381">
   <rect x="7.2" y="7.2" width="410.4" height="390.313594"/>
  </clipPath>
 </defs>
</svg>
