<?xml version="1.0" encoding="utf-8" standalone="no"?>
<!DOCTYPE svg PUBLIC "-//W3C//DTD SVG 1.1//EN"
  "http://www.w3.org/Graphics/SVG/1.1/DTD/svg11.dtd">
<svg xmlns:xlink="http://www.w3.org/1999/xlink" width="424.8pt" height="372.120471pt" viewBox="0 0 424.8 372.120471" xmlns="http://www.w3.org/2000/svg" version="1.1">
 <metadata>
  <rdf:RDF xmlns:dc="http://purl.org/dc/elements/1.1/" xmlns:cc="http://creativecommons.org/ns#" xmlns:rdf="http://www.w3.org/1999/02/22-rdf-syntax-ns#">
   <cc:Work>
    <dc:type rdf:resource="http://purl.org/dc/dcmitype/StillImage"/>
    <dc:date>2025-05-19T22:52:09.528392</dc:date>
    <dc:format>image/svg+xml</dc:format>
    <dc:creator>
     <cc:Agent>
      <dc:title>Matplotlib v3.8.0, https://matplotlib.org/</dc:title>
     </cc:Agent>
    </dc:creator>
   </cc:Work>
  </rdf:RDF>
 </metadata>
 <defs>
  <style type="text/css">*{stroke-linejoin: round; stroke-linecap: butt}</style>
 </defs>
 <g id="figure_1">
  <g id="patch_1">
   <path d="M 0 372.120471 
L 424.8 372.120471 
L 424.8 0 
L 0 0 
z
" style="fill: #ffffff"/>
  </g>
  <g id="axes_1">
   <g id="patch_2">
    <path d="M 7.2 364.920471 
L 417.6 364.920471 
L 417.6 7.2 
L 7.2 7.2 
z
" style="fill: #ffffff"/>
   </g>
   <g id="patch_3">
    <path d="M 37.94253 288.416837 
L 22.139275 79.044761 
L 150.691603 242.003 
z
" clip-path="url(#p82682f8276)" style="fill: #4682b4; opacity: 0.3"/>
   </g>
   <g id="patch_4">
    <path d="M 135.581845 140.101213 
L 87.06358 112.365801 
L 241.379992 50.751353 
z
" clip-path="url(#p82682f8276)" style="fill: #4682b4; opacity: 0.3"/>
   </g>
   <g id="patch_5">
    <path d="M 298.949188 79.281583 
L 135.581845 140.101213 
L 87.06358 112.365801 
z
" clip-path="url(#p82682f8276)" style="fill: #4682b4; opacity: 0.3"/>
   </g>
   <g id="patch_6">
    <path d="M 156.865988 26.324806 
L 87.06358 112.365801 
L 15.092308 197.4709 
z
" clip-path="url(#p82682f8276)" style="fill: #4682b4; opacity: 0.3"/>
   </g>
   <g id="patch_7">
    <path d="M 298.949188 79.281583 
L 135.581845 140.101213 
L 409.707692 267.580961 
z
" clip-path="url(#p82682f8276)" style="fill: #4682b4; opacity: 0.3"/>
   </g>
   <g id="patch_8">
    <path d="M 239.539525 236.320178 
L 135.581845 140.101213 
L 409.707692 267.580961 
z
" clip-path="url(#p82682f8276)" style="fill: #4682b4; opacity: 0.3"/>
   </g>
   <g id="patch_9">
    <path d="M 286.012946 358.041231 
L 150.691603 242.003 
L 253.874448 145.149027 
z
" clip-path="url(#p82682f8276)" style="fill: #4682b4; opacity: 0.3"/>
   </g>
   <g id="patch_10">
    <path d="M 156.865988 26.324806 
L 107.488439 234.527318 
L 150.691603 242.003 
z
" clip-path="url(#p82682f8276)" style="fill: #4682b4; opacity: 0.3"/>
   </g>
   <g id="patch_11">
    <path d="M 350.330505 152.110958 
L 107.488439 234.527318 
L 253.874448 145.149027 
z
" clip-path="url(#p82682f8276)" style="fill: #4682b4; opacity: 0.3"/>
   </g>
   <g id="patch_12">
    <path d="M 286.012946 358.041231 
L 241.379992 50.751353 
L 150.691603 242.003 
z
" clip-path="url(#p82682f8276)" style="fill: #4682b4; opacity: 0.3"/>
   </g>
   <g id="patch_13">
    <path d="M 298.949188 79.281583 
L 190.634071 91.728338 
L 22.139275 79.044761 
z
" clip-path="url(#p82682f8276)" style="fill: #4682b4; opacity: 0.3"/>
   </g>
   <g id="patch_14">
    <path d="M 114.960841 14.07924 
L 223.356206 97.75574 
L 253.874448 145.149027 
z
" clip-path="url(#p82682f8276)" style="fill: #4682b4; opacity: 0.3"/>
   </g>
   <g id="patch_15">
    <path d="M 156.865988 26.324806 
L 149.40869 292.977343 
L 253.874448 145.149027 
z
" clip-path="url(#p82682f8276)" style="fill: #4682b4; opacity: 0.3"/>
   </g>
   <g id="patch_16">
    <path d="M 114.960841 14.07924 
L 22.139275 79.044761 
L 96.667142 65.569231 
z
" clip-path="url(#p82682f8276)" style="fill: #4682b4; opacity: 0.3"/>
   </g>
   <g id="patch_17">
    <path d="M 96.667142 65.569231 
L 99.286856 171.190229 
L 241.379992 50.751353 
z
" clip-path="url(#p82682f8276)" style="fill: #4682b4; opacity: 0.3"/>
   </g>
   <g id="patch_18">
    <path d="M 114.960841 14.07924 
L 37.94253 288.416837 
L 107.488439 234.527318 
z
" clip-path="url(#p82682f8276)" style="fill: #4682b4; opacity: 0.3"/>
   </g>
   <g id="patch_19">
    <path d="M 156.865988 26.324806 
L 223.356206 97.75574 
L 177.689725 186.672265 
z
" clip-path="url(#p82682f8276)" style="fill: #4682b4; opacity: 0.3"/>
   </g>
   <g id="patch_20">
    <path d="M 293.942019 213.606714 
L 219.04374 178.615052 
L 286.012946 358.041231 
z
" clip-path="url(#p82682f8276)" style="fill: #4682b4; opacity: 0.3"/>
   </g>
   <g id="patch_21">
    <path d="M 239.539525 236.320178 
L 219.04374 178.615052 
L 409.707692 267.580961 
z
" clip-path="url(#p82682f8276)" style="fill: #4682b4; opacity: 0.3"/>
   </g>
   <g id="matplotlib.axis_1"/>
   <g id="matplotlib.axis_2"/>
   <g id="line2d_1">
    <path d="M 298.949188 79.281583 
L 190.634071 91.728338 
" clip-path="url(#p82682f8276)" style="fill: none; stroke: #000000; stroke-linecap: square"/>
   </g>
   <g id="line2d_2">
    <path d="M 298.949188 79.281583 
L 253.874448 145.149027 
" clip-path="url(#p82682f8276)" style="fill: none; stroke: #000000; stroke-linecap: square"/>
   </g>
   <g id="line2d_3">
    <path d="M 298.949188 79.281583 
L 409.707692 267.580961 
" clip-path="url(#p82682f8276)" style="fill: none; stroke: #000000; stroke-linecap: square"/>
   </g>
   <g id="line2d_4">
    <path d="M 298.949188 79.281583 
L 37.94253 288.416837 
" clip-path="url(#p82682f8276)" style="fill: none; stroke: #000000; stroke-linecap: square"/>
   </g>
   <g id="line2d_5">
    <path d="M 298.949188 79.281583 
L 135.581845 140.101213 
" clip-path="url(#p82682f8276)" style="fill: none; stroke: #000000; stroke-linecap: square"/>
   </g>
   <g id="line2d_6">
    <path d="M 298.949188 79.281583 
L 87.06358 112.365801 
" clip-path="url(#p82682f8276)" style="fill: none; stroke: #000000; stroke-linecap: square"/>
   </g>
   <g id="line2d_7">
    <path d="M 298.949188 79.281583 
L 107.488439 234.527318 
" clip-path="url(#p82682f8276)" style="fill: none; stroke: #000000; stroke-linecap: square"/>
   </g>
   <g id="line2d_8">
    <path d="M 298.949188 79.281583 
L 22.139275 79.044761 
" clip-path="url(#p82682f8276)" style="fill: none; stroke: #000000; stroke-linecap: square"/>
   </g>
   <g id="line2d_9">
    <path d="M 298.949188 79.281583 
L 96.667142 65.569231 
" clip-path="url(#p82682f8276)" style="fill: none; stroke: #000000; stroke-linecap: square"/>
   </g>
   <g id="line2d_10">
    <path d="M 239.539525 236.320178 
L 190.634071 91.728338 
" clip-path="url(#p82682f8276)" style="fill: none; stroke: #000000; stroke-linecap: square"/>
   </g>
   <g id="line2d_11">
    <path d="M 239.539525 236.320178 
L 409.707692 267.580961 
" clip-path="url(#p82682f8276)" style="fill: none; stroke: #000000; stroke-linecap: square"/>
   </g>
   <g id="line2d_12">
    <path d="M 239.539525 236.320178 
L 135.581845 140.101213 
" clip-path="url(#p82682f8276)" style="fill: none; stroke: #000000; stroke-linecap: square"/>
   </g>
   <g id="line2d_13">
    <path d="M 239.539525 236.320178 
L 219.04374 178.615052 
" clip-path="url(#p82682f8276)" style="fill: none; stroke: #000000; stroke-linecap: square"/>
   </g>
   <g id="line2d_14">
    <path d="M 190.634071 91.728338 
L 149.40869 292.977343 
" clip-path="url(#p82682f8276)" style="fill: none; stroke: #000000; stroke-linecap: square"/>
   </g>
   <g id="line2d_15">
    <path d="M 190.634071 91.728338 
L 156.865988 26.324806 
" clip-path="url(#p82682f8276)" style="fill: none; stroke: #000000; stroke-linecap: square"/>
   </g>
   <g id="line2d_16">
    <path d="M 190.634071 91.728338 
L 409.707692 267.580961 
" clip-path="url(#p82682f8276)" style="fill: none; stroke: #000000; stroke-linecap: square"/>
   </g>
   <g id="line2d_17">
    <path d="M 190.634071 91.728338 
L 22.139275 79.044761 
" clip-path="url(#p82682f8276)" style="fill: none; stroke: #000000; stroke-linecap: square"/>
   </g>
   <g id="line2d_18">
    <path d="M 293.942019 213.606714 
L 99.286856 171.190229 
" clip-path="url(#p82682f8276)" style="fill: none; stroke: #000000; stroke-linecap: square"/>
   </g>
   <g id="line2d_19">
    <path d="M 293.942019 213.606714 
L 253.874448 145.149027 
" clip-path="url(#p82682f8276)" style="fill: none; stroke: #000000; stroke-linecap: square"/>
   </g>
   <g id="line2d_20">
    <path d="M 293.942019 213.606714 
L 219.04374 178.615052 
" clip-path="url(#p82682f8276)" style="fill: none; stroke: #000000; stroke-linecap: square"/>
   </g>
   <g id="line2d_21">
    <path d="M 293.942019 213.606714 
L 96.667142 65.569231 
" clip-path="url(#p82682f8276)" style="fill: none; stroke: #000000; stroke-linecap: square"/>
   </g>
   <g id="line2d_22">
    <path d="M 293.942019 213.606714 
L 286.012946 358.041231 
" clip-path="url(#p82682f8276)" style="fill: none; stroke: #000000; stroke-linecap: square"/>
   </g>
   <g id="line2d_23">
    <path d="M 114.960841 14.07924 
L 253.874448 145.149027 
" clip-path="url(#p82682f8276)" style="fill: none; stroke: #000000; stroke-linecap: square"/>
   </g>
   <g id="line2d_24">
    <path d="M 114.960841 14.07924 
L 37.94253 288.416837 
" clip-path="url(#p82682f8276)" style="fill: none; stroke: #000000; stroke-linecap: square"/>
   </g>
   <g id="line2d_25">
    <path d="M 114.960841 14.07924 
L 350.330505 152.110958 
" clip-path="url(#p82682f8276)" style="fill: none; stroke: #000000; stroke-linecap: square"/>
   </g>
   <g id="line2d_26">
    <path d="M 114.960841 14.07924 
L 223.356206 97.75574 
" clip-path="url(#p82682f8276)" style="fill: none; stroke: #000000; stroke-linecap: square"/>
   </g>
   <g id="line2d_27">
    <path d="M 114.960841 14.07924 
L 107.488439 234.527318 
" clip-path="url(#p82682f8276)" style="fill: none; stroke: #000000; stroke-linecap: square"/>
   </g>
   <g id="line2d_28">
    <path d="M 114.960841 14.07924 
L 22.139275 79.044761 
" clip-path="url(#p82682f8276)" style="fill: none; stroke: #000000; stroke-linecap: square"/>
   </g>
   <g id="line2d_29">
    <path d="M 114.960841 14.07924 
L 96.667142 65.569231 
" clip-path="url(#p82682f8276)" style="fill: none; stroke: #000000; stroke-linecap: square"/>
   </g>
   <g id="line2d_30">
    <path d="M 156.865988 26.324806 
L 99.286856 171.190229 
" clip-path="url(#p82682f8276)" style="fill: none; stroke: #000000; stroke-linecap: square"/>
   </g>
   <g id="line2d_31">
    <path d="M 156.865988 26.324806 
L 149.40869 292.977343 
" clip-path="url(#p82682f8276)" style="fill: none; stroke: #000000; stroke-linecap: square"/>
   </g>
   <g id="line2d_32">
    <path d="M 156.865988 26.324806 
L 150.691603 242.003 
" clip-path="url(#p82682f8276)" style="fill: none; stroke: #000000; stroke-linecap: square"/>
   </g>
   <g id="line2d_33">
    <path d="M 156.865988 26.324806 
L 253.874448 145.149027 
" clip-path="url(#p82682f8276)" style="fill: none; stroke: #000000; stroke-linecap: square"/>
   </g>
   <g id="line2d_34">
    <path d="M 156.865988 26.324806 
L 15.092308 197.4709 
" clip-path="url(#p82682f8276)" style="fill: none; stroke: #000000; stroke-linecap: square"/>
   </g>
   <g id="line2d_35">
    <path d="M 156.865988 26.324806 
L 177.689725 186.672265 
" clip-path="url(#p82682f8276)" style="fill: none; stroke: #000000; stroke-linecap: square"/>
   </g>
   <g id="line2d_36">
    <path d="M 156.865988 26.324806 
L 350.330505 152.110958 
" clip-path="url(#p82682f8276)" style="fill: none; stroke: #000000; stroke-linecap: square"/>
   </g>
   <g id="line2d_37">
    <path d="M 156.865988 26.324806 
L 223.356206 97.75574 
" clip-path="url(#p82682f8276)" style="fill: none; stroke: #000000; stroke-linecap: square"/>
   </g>
   <g id="line2d_38">
    <path d="M 156.865988 26.324806 
L 87.06358 112.365801 
" clip-path="url(#p82682f8276)" style="fill: none; stroke: #000000; stroke-linecap: square"/>
   </g>
   <g id="line2d_39">
    <path d="M 156.865988 26.324806 
L 107.488439 234.527318 
" clip-path="url(#p82682f8276)" style="fill: none; stroke: #000000; stroke-linecap: square"/>
   </g>
   <g id="line2d_40">
    <path d="M 156.865988 26.324806 
L 286.012946 358.041231 
" clip-path="url(#p82682f8276)" style="fill: none; stroke: #000000; stroke-linecap: square"/>
   </g>
   <g id="line2d_41">
    <path d="M 37.94253 288.416837 
L 150.691603 242.003 
" clip-path="url(#p82682f8276)" style="fill: none; stroke: #000000; stroke-linecap: square"/>
   </g>
   <g id="line2d_42">
    <path d="M 37.94253 288.416837 
L 15.092308 197.4709 
" clip-path="url(#p82682f8276)" style="fill: none; stroke: #000000; stroke-linecap: square"/>
   </g>
   <g id="line2d_43">
    <path d="M 37.94253 288.416837 
L 223.356206 97.75574 
" clip-path="url(#p82682f8276)" style="fill: none; stroke: #000000; stroke-linecap: square"/>
   </g>
   <g id="line2d_44">
    <path d="M 37.94253 288.416837 
L 107.488439 234.527318 
" clip-path="url(#p82682f8276)" style="fill: none; stroke: #000000; stroke-linecap: square"/>
   </g>
   <g id="line2d_45">
    <path d="M 37.94253 288.416837 
L 22.139275 79.044761 
" clip-path="url(#p82682f8276)" style="fill: none; stroke: #000000; stroke-linecap: square"/>
   </g>
   <g id="line2d_46">
    <path d="M 135.581845 140.101213 
L 241.379992 50.751353 
" clip-path="url(#p82682f8276)" style="fill: none; stroke: #000000; stroke-linecap: square"/>
   </g>
   <g id="line2d_47">
    <path d="M 135.581845 140.101213 
L 409.707692 267.580961 
" clip-path="url(#p82682f8276)" style="fill: none; stroke: #000000; stroke-linecap: square"/>
   </g>
   <g id="line2d_48">
    <path d="M 135.581845 140.101213 
L 350.330505 152.110958 
" clip-path="url(#p82682f8276)" style="fill: none; stroke: #000000; stroke-linecap: square"/>
   </g>
   <g id="line2d_49">
    <path d="M 135.581845 140.101213 
L 87.06358 112.365801 
" clip-path="url(#p82682f8276)" style="fill: none; stroke: #000000; stroke-linecap: square"/>
   </g>
   <g id="line2d_50">
    <path d="M 135.581845 140.101213 
L 22.139275 79.044761 
" clip-path="url(#p82682f8276)" style="fill: none; stroke: #000000; stroke-linecap: square"/>
   </g>
   <g id="line2d_51">
    <path d="M 350.330505 152.110958 
L 253.874448 145.149027 
" clip-path="url(#p82682f8276)" style="fill: none; stroke: #000000; stroke-linecap: square"/>
   </g>
   <g id="line2d_52">
    <path d="M 350.330505 152.110958 
L 15.092308 197.4709 
" clip-path="url(#p82682f8276)" style="fill: none; stroke: #000000; stroke-linecap: square"/>
   </g>
   <g id="line2d_53">
    <path d="M 350.330505 152.110958 
L 107.488439 234.527318 
" clip-path="url(#p82682f8276)" style="fill: none; stroke: #000000; stroke-linecap: square"/>
   </g>
   <g id="line2d_54">
    <path d="M 350.330505 152.110958 
L 219.04374 178.615052 
" clip-path="url(#p82682f8276)" style="fill: none; stroke: #000000; stroke-linecap: square"/>
   </g>
   <g id="line2d_55">
    <path d="M 223.356206 97.75574 
L 253.874448 145.149027 
" clip-path="url(#p82682f8276)" style="fill: none; stroke: #000000; stroke-linecap: square"/>
   </g>
   <g id="line2d_56">
    <path d="M 223.356206 97.75574 
L 177.689725 186.672265 
" clip-path="url(#p82682f8276)" style="fill: none; stroke: #000000; stroke-linecap: square"/>
   </g>
   <g id="line2d_57">
    <path d="M 87.06358 112.365801 
L 241.379992 50.751353 
" clip-path="url(#p82682f8276)" style="fill: none; stroke: #000000; stroke-linecap: square"/>
   </g>
   <g id="line2d_58">
    <path d="M 87.06358 112.365801 
L 150.691603 242.003 
" clip-path="url(#p82682f8276)" style="fill: none; stroke: #000000; stroke-linecap: square"/>
   </g>
   <g id="line2d_59">
    <path d="M 87.06358 112.365801 
L 15.092308 197.4709 
" clip-path="url(#p82682f8276)" style="fill: none; stroke: #000000; stroke-linecap: square"/>
   </g>
   <g id="line2d_60">
    <path d="M 87.06358 112.365801 
L 177.689725 186.672265 
" clip-path="url(#p82682f8276)" style="fill: none; stroke: #000000; stroke-linecap: square"/>
   </g>
   <g id="line2d_61">
    <path d="M 107.488439 234.527318 
L 150.691603 242.003 
" clip-path="url(#p82682f8276)" style="fill: none; stroke: #000000; stroke-linecap: square"/>
   </g>
   <g id="line2d_62">
    <path d="M 107.488439 234.527318 
L 253.874448 145.149027 
" clip-path="url(#p82682f8276)" style="fill: none; stroke: #000000; stroke-linecap: square"/>
   </g>
   <g id="line2d_63">
    <path d="M 219.04374 178.615052 
L 241.379992 50.751353 
" clip-path="url(#p82682f8276)" style="fill: none; stroke: #000000; stroke-linecap: square"/>
   </g>
   <g id="line2d_64">
    <path d="M 219.04374 178.615052 
L 150.691603 242.003 
" clip-path="url(#p82682f8276)" style="fill: none; stroke: #000000; stroke-linecap: square"/>
   </g>
   <g id="line2d_65">
    <path d="M 219.04374 178.615052 
L 409.707692 267.580961 
" clip-path="url(#p82682f8276)" style="fill: none; stroke: #000000; stroke-linecap: square"/>
   </g>
   <g id="line2d_66">
    <path d="M 219.04374 178.615052 
L 177.689725 186.672265 
" clip-path="url(#p82682f8276)" style="fill: none; stroke: #000000; stroke-linecap: square"/>
   </g>
   <g id="line2d_67">
    <path d="M 219.04374 178.615052 
L 286.012946 358.041231 
" clip-path="url(#p82682f8276)" style="fill: none; stroke: #000000; stroke-linecap: square"/>
   </g>
   <g id="line2d_68">
    <path d="M 22.139275 79.044761 
L 150.691603 242.003 
" clip-path="url(#p82682f8276)" style="fill: none; stroke: #000000; stroke-linecap: square"/>
   </g>
   <g id="line2d_69">
    <path d="M 22.139275 79.044761 
L 409.707692 267.580961 
" clip-path="url(#p82682f8276)" style="fill: none; stroke: #000000; stroke-linecap: square"/>
   </g>
   <g id="line2d_70">
    <path d="M 22.139275 79.044761 
L 96.667142 65.569231 
" clip-path="url(#p82682f8276)" style="fill: none; stroke: #000000; stroke-linecap: square"/>
   </g>
   <g id="line2d_71">
    <path d="M 96.667142 65.569231 
L 99.286856 171.190229 
" clip-path="url(#p82682f8276)" style="fill: none; stroke: #000000; stroke-linecap: square"/>
   </g>
   <g id="line2d_72">
    <path d="M 96.667142 65.569231 
L 241.379992 50.751353 
" clip-path="url(#p82682f8276)" style="fill: none; stroke: #000000; stroke-linecap: square"/>
   </g>
   <g id="line2d_73">
    <path d="M 96.667142 65.569231 
L 150.691603 242.003 
" clip-path="url(#p82682f8276)" style="fill: none; stroke: #000000; stroke-linecap: square"/>
   </g>
   <g id="line2d_74">
    <path d="M 286.012946 358.041231 
L 241.379992 50.751353 
" clip-path="url(#p82682f8276)" style="fill: none; stroke: #000000; stroke-linecap: square"/>
   </g>
   <g id="line2d_75">
    <path d="M 286.012946 358.041231 
L 149.40869 292.977343 
" clip-path="url(#p82682f8276)" style="fill: none; stroke: #000000; stroke-linecap: square"/>
   </g>
   <g id="line2d_76">
    <path d="M 286.012946 358.041231 
L 150.691603 242.003 
" clip-path="url(#p82682f8276)" style="fill: none; stroke: #000000; stroke-linecap: square"/>
   </g>
   <g id="line2d_77">
    <path d="M 286.012946 358.041231 
L 253.874448 145.149027 
" clip-path="url(#p82682f8276)" style="fill: none; stroke: #000000; stroke-linecap: square"/>
   </g>
   <g id="line2d_78">
    <path d="M 286.012946 358.041231 
L 15.092308 197.4709 
" clip-path="url(#p82682f8276)" style="fill: none; stroke: #000000; stroke-linecap: square"/>
   </g>
   <g id="line2d_79">
    <path d="M 99.286856 171.190229 
L 241.379992 50.751353 
" clip-path="url(#p82682f8276)" style="fill: none; stroke: #000000; stroke-linecap: square"/>
   </g>
   <g id="line2d_80">
    <path d="M 99.286856 171.190229 
L 177.689725 186.672265 
" clip-path="url(#p82682f8276)" style="fill: none; stroke: #000000; stroke-linecap: square"/>
   </g>
   <g id="line2d_81">
    <path d="M 241.379992 50.751353 
L 150.691603 242.003 
" clip-path="url(#p82682f8276)" style="fill: none; stroke: #000000; stroke-linecap: square"/>
   </g>
   <g id="line2d_82">
    <path d="M 149.40869 292.977343 
L 253.874448 145.149027 
" clip-path="url(#p82682f8276)" style="fill: none; stroke: #000000; stroke-linecap: square"/>
   </g>
   <g id="line2d_83">
    <path d="M 149.40869 292.977343 
L 177.689725 186.672265 
" clip-path="url(#p82682f8276)" style="fill: none; stroke: #000000; stroke-linecap: square"/>
   </g>
   <g id="line2d_84">
    <path d="M 150.691603 242.003 
L 253.874448 145.149027 
" clip-path="url(#p82682f8276)" style="fill: none; stroke: #000000; stroke-linecap: square"/>
   </g>
   <g id="line2d_85">
    <path d="M 150.691603 242.003 
L 409.707692 267.580961 
" clip-path="url(#p82682f8276)" style="fill: none; stroke: #000000; stroke-linecap: square"/>
   </g>
   <g id="line2d_86">
    <path d="M 253.874448 145.149027 
L 15.092308 197.4709 
" clip-path="url(#p82682f8276)" style="fill: none; stroke: #000000; stroke-linecap: square"/>
   </g>
   <g id="PathCollection_1">
    <defs>
     <path id="mdc20338ac7" d="M 0 7.071068 
C 1.875269 7.071068 3.673985 6.326016 5 5 
C 6.326016 3.673985 7.071068 1.875269 7.071068 0 
C 7.071068 -1.875269 6.326016 -3.673985 5 -5 
C 3.673985 -6.326016 1.875269 -7.071068 0 -7.071068 
C -1.875269 -7.071068 -3.673985 -6.326016 -5 -5 
C -6.326016 -3.673985 -7.071068 -1.875269 -7.071068 0 
C -7.071068 1.875269 -6.326016 3.673985 -5 5 
C -3.673985 6.326016 -1.875269 7.071068 0 7.071068 
z
" style="stroke: #000000"/>
    </defs>
    <g>
     <use xlink:href="#mdc20338ac7" x="298.949188" y="79.281583" style="fill: #fec7b8; stroke: #000000"/>
     <use xlink:href="#mdc20338ac7" x="239.539525" y="236.320178" style="fill: #fec7b8; stroke: #000000"/>
     <use xlink:href="#mdc20338ac7" x="190.634071" y="91.728338" style="fill: #fec7b8; stroke: #000000"/>
     <use xlink:href="#mdc20338ac7" x="293.942019" y="213.606714" style="fill: #fec7b8; stroke: #000000"/>
     <use xlink:href="#mdc20338ac7" x="114.960841" y="14.07924" style="fill: #fec7b8; stroke: #000000"/>
     <use xlink:href="#mdc20338ac7" x="156.865988" y="26.324806" style="fill: #fec7b8; stroke: #000000"/>
     <use xlink:href="#mdc20338ac7" x="37.94253" y="288.416837" style="fill: #fec7b8; stroke: #000000"/>
     <use xlink:href="#mdc20338ac7" x="135.581845" y="140.101213" style="fill: #fec7b8; stroke: #000000"/>
     <use xlink:href="#mdc20338ac7" x="350.330505" y="152.110958" style="fill: #fec7b8; stroke: #000000"/>
     <use xlink:href="#mdc20338ac7" x="223.356206" y="97.75574" style="fill: #fec7b8; stroke: #000000"/>
     <use xlink:href="#mdc20338ac7" x="87.06358" y="112.365801" style="fill: #fec7b8; stroke: #000000"/>
     <use xlink:href="#mdc20338ac7" x="107.488439" y="234.527318" style="fill: #fec7b8; stroke: #000000"/>
     <use xlink:href="#mdc20338ac7" x="219.04374" y="178.615052" style="fill: #fec7b8; stroke: #000000"/>
     <use xlink:href="#mdc20338ac7" x="22.139275" y="79.044761" style="fill: #fec7b8; stroke: #000000"/>
     <use xlink:href="#mdc20338ac7" x="96.667142" y="65.569231" style="fill: #fec7b8; stroke: #000000"/>
     <use xlink:href="#mdc20338ac7" x="286.012946" y="358.041231" style="fill: #fec7b8; stroke: #000000"/>
     <use xlink:href="#mdc20338ac7" x="99.286856" y="171.190229" style="fill: #fec7b8; stroke: #000000"/>
     <use xlink:href="#mdc20338ac7" x="241.379992" y="50.751353" style="fill: #fec7b8; stroke: #000000"/>
     <use xlink:href="#mdc20338ac7" x="149.40869" y="292.977343" style="fill: #fec7b8; stroke: #000000"/>
     <use xlink:href="#mdc20338ac7" x="150.691603" y="242.003" style="fill: #fec7b8; stroke: #000000"/>
     <use xlink:href="#mdc20338ac7" x="253.874448" y="145.149027" style="fill: #fec7b8; stroke: #000000"/>
     <use xlink:href="#mdc20338ac7" x="15.092308" y="197.4709" style="fill: #fec7b8; stroke: #000000"/>
     <use xlink:href="#mdc20338ac7" x="409.707692" y="267.580961" style="fill: #fec7b8; stroke: #000000"/>
     <use xlink:href="#mdc20338ac7" x="177.689725" y="186.672265" style="fill: #fec7b8; stroke: #000000"/>
    </g>
   </g>
   <g id="text_1">
    <!-- 0 -->
    <g transform="translate(295.767938 82.040958) scale(0.1 -0.1)">
     <defs>
      <path id="DejaVuSans-30" d="M 2034 4250 
Q 1547 4250 1301 3770 
Q 1056 3291 1056 2328 
Q 1056 1369 1301 889 
Q 1547 409 2034 409 
Q 2525 409 2770 889 
Q 3016 1369 3016 2328 
Q 3016 3291 2770 3770 
Q 2525 4250 2034 4250 
z
M 2034 4750 
Q 2819 4750 3233 4129 
Q 3647 3509 3647 2328 
Q 3647 1150 3233 529 
Q 2819 -91 2034 -91 
Q 1250 -91 836 529 
Q 422 1150 422 2328 
Q 422 3509 836 4129 
Q 1250 4750 2034 4750 
z
" transform="scale(0.015625)"/>
     </defs>
     <use xlink:href="#DejaVuSans-30"/>
    </g>
   </g>
   <g id="text_2">
    <!-- 1 -->
    <g transform="translate(236.358275 239.079553) scale(0.1 -0.1)">
     <defs>
      <path id="DejaVuSans-31" d="M 794 531 
L 1825 531 
L 1825 4091 
L 703 3866 
L 703 4441 
L 1819 4666 
L 2450 4666 
L 2450 531 
L 3481 531 
L 3481 0 
L 794 0 
L 794 531 
z
" transform="scale(0.015625)"/>
     </defs>
     <use xlink:href="#DejaVuSans-31"/>
    </g>
   </g>
   <g id="text_3">
    <!-- 2 -->
    <g transform="translate(187.452821 94.487713) scale(0.1 -0.1)">
     <defs>
      <path id="DejaVuSans-32" d="M 1228 531 
L 3431 531 
L 3431 0 
L 469 0 
L 469 531 
Q 828 903 1448 1529 
Q 2069 2156 2228 2338 
Q 2531 2678 2651 2914 
Q 2772 3150 2772 3378 
Q 2772 3750 2511 3984 
Q 2250 4219 1831 4219 
Q 1534 4219 1204 4116 
Q 875 4013 500 3803 
L 500 4441 
Q 881 4594 1212 4672 
Q 1544 4750 1819 4750 
Q 2544 4750 2975 4387 
Q 3406 4025 3406 3419 
Q 3406 3131 3298 2873 
Q 3191 2616 2906 2266 
Q 2828 2175 2409 1742 
Q 1991 1309 1228 531 
z
" transform="scale(0.015625)"/>
     </defs>
     <use xlink:href="#DejaVuSans-32"/>
    </g>
   </g>
   <g id="text_4">
    <!-- 3 -->
    <g transform="translate(290.760769 216.366089) scale(0.1 -0.1)">
     <defs>
      <path id="DejaVuSans-33" d="M 2597 2516 
Q 3050 2419 3304 2112 
Q 3559 1806 3559 1356 
Q 3559 666 3084 287 
Q 2609 -91 1734 -91 
Q 1441 -91 1130 -33 
Q 819 25 488 141 
L 488 750 
Q 750 597 1062 519 
Q 1375 441 1716 441 
Q 2309 441 2620 675 
Q 2931 909 2931 1356 
Q 2931 1769 2642 2001 
Q 2353 2234 1838 2234 
L 1294 2234 
L 1294 2753 
L 1863 2753 
Q 2328 2753 2575 2939 
Q 2822 3125 2822 3475 
Q 2822 3834 2567 4026 
Q 2313 4219 1838 4219 
Q 1578 4219 1281 4162 
Q 984 4106 628 3988 
L 628 4550 
Q 988 4650 1302 4700 
Q 1616 4750 1894 4750 
Q 2613 4750 3031 4423 
Q 3450 4097 3450 3541 
Q 3450 3153 3228 2886 
Q 3006 2619 2597 2516 
z
" transform="scale(0.015625)"/>
     </defs>
     <use xlink:href="#DejaVuSans-33"/>
    </g>
   </g>
   <g id="text_5">
    <!-- 4 -->
    <g transform="translate(111.779591 16.838615) scale(0.1 -0.1)">
     <defs>
      <path id="DejaVuSans-34" d="M 2419 4116 
L 825 1625 
L 2419 1625 
L 2419 4116 
z
M 2253 4666 
L 3047 4666 
L 3047 1625 
L 3713 1625 
L 3713 1100 
L 3047 1100 
L 3047 0 
L 2419 0 
L 2419 1100 
L 313 1100 
L 313 1709 
L 2253 4666 
z
" transform="scale(0.015625)"/>
     </defs>
     <use xlink:href="#DejaVuSans-34"/>
    </g>
   </g>
   <g id="text_6">
    <!-- 5 -->
    <g transform="translate(153.684738 29.084181) scale(0.1 -0.1)">
     <defs>
      <path id="DejaVuSans-35" d="M 691 4666 
L 3169 4666 
L 3169 4134 
L 1269 4134 
L 1269 2991 
Q 1406 3038 1543 3061 
Q 1681 3084 1819 3084 
Q 2600 3084 3056 2656 
Q 3513 2228 3513 1497 
Q 3513 744 3044 326 
Q 2575 -91 1722 -91 
Q 1428 -91 1123 -41 
Q 819 9 494 109 
L 494 744 
Q 775 591 1075 516 
Q 1375 441 1709 441 
Q 2250 441 2565 725 
Q 2881 1009 2881 1497 
Q 2881 1984 2565 2268 
Q 2250 2553 1709 2553 
Q 1456 2553 1204 2497 
Q 953 2441 691 2322 
L 691 4666 
z
" transform="scale(0.015625)"/>
     </defs>
     <use xlink:href="#DejaVuSans-35"/>
    </g>
   </g>
   <g id="text_7">
    <!-- 6 -->
    <g transform="translate(34.76128 291.176212) scale(0.1 -0.1)">
     <defs>
      <path id="DejaVuSans-36" d="M 2113 2584 
Q 1688 2584 1439 2293 
Q 1191 2003 1191 1497 
Q 1191 994 1439 701 
Q 1688 409 2113 409 
Q 2538 409 2786 701 
Q 3034 994 3034 1497 
Q 3034 2003 2786 2293 
Q 2538 2584 2113 2584 
z
M 3366 4563 
L 3366 3988 
Q 3128 4100 2886 4159 
Q 2644 4219 2406 4219 
Q 1781 4219 1451 3797 
Q 1122 3375 1075 2522 
Q 1259 2794 1537 2939 
Q 1816 3084 2150 3084 
Q 2853 3084 3261 2657 
Q 3669 2231 3669 1497 
Q 3669 778 3244 343 
Q 2819 -91 2113 -91 
Q 1303 -91 875 529 
Q 447 1150 447 2328 
Q 447 3434 972 4092 
Q 1497 4750 2381 4750 
Q 2619 4750 2861 4703 
Q 3103 4656 3366 4563 
z
" transform="scale(0.015625)"/>
     </defs>
     <use xlink:href="#DejaVuSans-36"/>
    </g>
   </g>
   <g id="text_8">
    <!-- 7 -->
    <g transform="translate(132.400595 142.860588) scale(0.1 -0.1)">
     <defs>
      <path id="DejaVuSans-37" d="M 525 4666 
L 3525 4666 
L 3525 4397 
L 1831 0 
L 1172 0 
L 2766 4134 
L 525 4134 
L 525 4666 
z
" transform="scale(0.015625)"/>
     </defs>
     <use xlink:href="#DejaVuSans-37"/>
    </g>
   </g>
   <g id="text_9">
    <!-- 8 -->
    <g transform="translate(347.149255 154.870333) scale(0.1 -0.1)">
     <defs>
      <path id="DejaVuSans-38" d="M 2034 2216 
Q 1584 2216 1326 1975 
Q 1069 1734 1069 1313 
Q 1069 891 1326 650 
Q 1584 409 2034 409 
Q 2484 409 2743 651 
Q 3003 894 3003 1313 
Q 3003 1734 2745 1975 
Q 2488 2216 2034 2216 
z
M 1403 2484 
Q 997 2584 770 2862 
Q 544 3141 544 3541 
Q 544 4100 942 4425 
Q 1341 4750 2034 4750 
Q 2731 4750 3128 4425 
Q 3525 4100 3525 3541 
Q 3525 3141 3298 2862 
Q 3072 2584 2669 2484 
Q 3125 2378 3379 2068 
Q 3634 1759 3634 1313 
Q 3634 634 3220 271 
Q 2806 -91 2034 -91 
Q 1263 -91 848 271 
Q 434 634 434 1313 
Q 434 1759 690 2068 
Q 947 2378 1403 2484 
z
M 1172 3481 
Q 1172 3119 1398 2916 
Q 1625 2713 2034 2713 
Q 2441 2713 2670 2916 
Q 2900 3119 2900 3481 
Q 2900 3844 2670 4047 
Q 2441 4250 2034 4250 
Q 1625 4250 1398 4047 
Q 1172 3844 1172 3481 
z
" transform="scale(0.015625)"/>
     </defs>
     <use xlink:href="#DejaVuSans-38"/>
    </g>
   </g>
   <g id="text_10">
    <!-- 9 -->
    <g transform="translate(220.174956 100.515115) scale(0.1 -0.1)">
     <defs>
      <path id="DejaVuSans-39" d="M 703 97 
L 703 672 
Q 941 559 1184 500 
Q 1428 441 1663 441 
Q 2288 441 2617 861 
Q 2947 1281 2994 2138 
Q 2813 1869 2534 1725 
Q 2256 1581 1919 1581 
Q 1219 1581 811 2004 
Q 403 2428 403 3163 
Q 403 3881 828 4315 
Q 1253 4750 1959 4750 
Q 2769 4750 3195 4129 
Q 3622 3509 3622 2328 
Q 3622 1225 3098 567 
Q 2575 -91 1691 -91 
Q 1453 -91 1209 -44 
Q 966 3 703 97 
z
M 1959 2075 
Q 2384 2075 2632 2365 
Q 2881 2656 2881 3163 
Q 2881 3666 2632 3958 
Q 2384 4250 1959 4250 
Q 1534 4250 1286 3958 
Q 1038 3666 1038 3163 
Q 1038 2656 1286 2365 
Q 1534 2075 1959 2075 
z
" transform="scale(0.015625)"/>
     </defs>
     <use xlink:href="#DejaVuSans-39"/>
    </g>
   </g>
   <g id="text_11">
    <!-- 10 -->
    <g transform="translate(80.70108 115.125176) scale(0.1 -0.1)">
     <use xlink:href="#DejaVuSans-31"/>
     <use xlink:href="#DejaVuSans-30" x="63.623047"/>
    </g>
   </g>
   <g id="text_12">
    <!-- 11 -->
    <g transform="translate(101.125939 237.286693) scale(0.1 -0.1)">
     <use xlink:href="#DejaVuSans-31"/>
     <use xlink:href="#DejaVuSans-31" x="63.623047"/>
    </g>
   </g>
   <g id="text_13">
    <!-- 12 -->
    <g transform="translate(212.68124 181.374427) scale(0.1 -0.1)">
     <use xlink:href="#DejaVuSans-31"/>
     <use xlink:href="#DejaVuSans-32" x="63.623047"/>
    </g>
   </g>
   <g id="text_14">
    <!-- 13 -->
    <g transform="translate(15.776775 81.804136) scale(0.1 -0.1)">
     <use xlink:href="#DejaVuSans-31"/>
     <use xlink:href="#DejaVuSans-33" x="63.623047"/>
    </g>
   </g>
   <g id="text_15">
    <!-- 14 -->
    <g transform="translate(90.304642 68.328606) scale(0.1 -0.1)">
     <use xlink:href="#DejaVuSans-31"/>
     <use xlink:href="#DejaVuSans-34" x="63.623047"/>
    </g>
   </g>
   <g id="text_16">
    <!-- 15 -->
    <g transform="translate(279.650446 360.800606) scale(0.1 -0.1)">
     <use xlink:href="#DejaVuSans-31"/>
     <use xlink:href="#DejaVuSans-35" x="63.623047"/>
    </g>
   </g>
   <g id="text_17">
    <!-- 16 -->
    <g transform="translate(92.924356 173.949604) scale(0.1 -0.1)">
     <use xlink:href="#DejaVuSans-31"/>
     <use xlink:href="#DejaVuSans-36" x="63.623047"/>
    </g>
   </g>
   <g id="text_18">
    <!-- 17 -->
    <g transform="translate(235.017492 53.510728) scale(0.1 -0.1)">
     <use xlink:href="#DejaVuSans-31"/>
     <use xlink:href="#DejaVuSans-37" x="63.623047"/>
    </g>
   </g>
   <g id="text_19">
    <!-- 18 -->
    <g transform="translate(143.04619 295.736718) scale(0.1 -0.1)">
     <use xlink:href="#DejaVuSans-31"/>
     <use xlink:href="#DejaVuSans-38" x="63.623047"/>
    </g>
   </g>
   <g id="text_20">
    <!-- 19 -->
    <g transform="translate(144.329103 244.762375) scale(0.1 -0.1)">
     <use xlink:href="#DejaVuSans-31"/>
     <use xlink:href="#DejaVuSans-39" x="63.623047"/>
    </g>
   </g>
   <g id="text_21">
    <!-- 20 -->
    <g transform="translate(247.511948 147.908402) scale(0.1 -0.1)">
     <use xlink:href="#DejaVuSans-32"/>
     <use xlink:href="#DejaVuSans-30" x="63.623047"/>
    </g>
   </g>
   <g id="text_22">
    <!-- 21 -->
    <g transform="translate(8.729808 200.230275) scale(0.1 -0.1)">
     <use xlink:href="#DejaVuSans-32"/>
     <use xlink:href="#DejaVuSans-31" x="63.623047"/>
    </g>
   </g>
   <g id="text_23">
    <!-- 22 -->
    <g transform="translate(403.345192 270.340336) scale(0.1 -0.1)">
     <use xlink:href="#DejaVuSans-32"/>
     <use xlink:href="#DejaVuSans-32" x="63.623047"/>
    </g>
   </g>
   <g id="text_24">
    <!-- 23 -->
    <g transform="translate(171.327225 189.43164) scale(0.1 -0.1)">
     <use xlink:href="#DejaVuSans-32"/>
     <use xlink:href="#DejaVuSans-33" x="63.623047"/>
    </g>
   </g>
  </g>
 </g>
 <defs>
  <clipPath id="p82682f8276">
   <rect x="7.2" y="7.2" width="410.4" height="357.720471"/>
  </clipPath>
 </defs>
</svg>
