<?xml version="1.0" encoding="utf-8" standalone="no"?>
<!DOCTYPE svg PUBLIC "-//W3C//DTD SVG 1.1//EN"
  "http://www.w3.org/Graphics/SVG/1.1/DTD/svg11.dtd">
<svg xmlns:xlink="http://www.w3.org/1999/xlink" width="420.500074pt" height="424.8pt" viewBox="0 0 420.500074 424.8" xmlns="http://www.w3.org/2000/svg" version="1.1">
 <metadata>
  <rdf:RDF xmlns:dc="http://purl.org/dc/elements/1.1/" xmlns:cc="http://creativecommons.org/ns#" xmlns:rdf="http://www.w3.org/1999/02/22-rdf-syntax-ns#">
   <cc:Work>
    <dc:type rdf:resource="http://purl.org/dc/dcmitype/StillImage"/>
    <dc:date>2025-05-18T22:29:44.233144</dc:date>
    <dc:format>image/svg+xml</dc:format>
    <dc:creator>
     <cc:Agent>
      <dc:title>Matplotlib v3.8.0, https://matplotlib.org/</dc:title>
     </cc:Agent>
    </dc:creator>
   </cc:Work>
  </rdf:RDF>
 </metadata>
 <defs>
  <style type="text/css">*{stroke-linejoin: round; stroke-linecap: butt}</style>
 </defs>
 <g id="figure_1">
  <g id="patch_1">
   <path d="M 0 424.8 
L 420.500074 424.8 
L 420.500074 0 
L 0 0 
z
" style="fill: #ffffff"/>
  </g>
  <g id="axes_1">
   <g id="patch_2">
    <path d="M 7.2 417.6 
L 413.300074 417.6 
L 413.300074 7.2 
L 7.2 7.2 
z
" style="fill: #ffffff"/>
   </g>
   <g id="patch_3">
    <path d="M 15.009617 314.072594 
L 56.679301 176.898853 
L 16.119021 235.964004 
z
" clip-path="url(#p234df2e76f)" style="fill: #4682b4; opacity: 0.3"/>
   </g>
   <g id="patch_4">
    <path d="M 357.774569 39.541595 
L 206.687195 99.581657 
L 261.244891 15.092308 
z
" clip-path="url(#p234df2e76f)" style="fill: #4682b4; opacity: 0.3"/>
   </g>
   <g id="patch_5">
    <path d="M 147.603612 251.696151 
L 224.055765 193.680868 
L 256.401768 357.608638 
z
" clip-path="url(#p234df2e76f)" style="fill: #4682b4; opacity: 0.3"/>
   </g>
   <g id="patch_6">
    <path d="M 306.845725 249.06341 
L 304.082916 125.144493 
L 264.924171 280.10999 
z
" clip-path="url(#p234df2e76f)" style="fill: #4682b4; opacity: 0.3"/>
   </g>
   <g id="patch_7">
    <path d="M 15.009617 314.072594 
L 95.207707 357.925021 
L 147.603612 251.696151 
z
" clip-path="url(#p234df2e76f)" style="fill: #4682b4; opacity: 0.3"/>
   </g>
   <g id="patch_8">
    <path d="M 194.40572 409.707692 
L 192.878574 314.466318 
L 147.603612 251.696151 
z
" clip-path="url(#p234df2e76f)" style="fill: #4682b4; opacity: 0.3"/>
   </g>
   <g id="patch_9">
    <path d="M 131.275081 146.820475 
L 206.687195 99.581657 
L 147.603612 251.696151 
z
" clip-path="url(#p234df2e76f)" style="fill: #4682b4; opacity: 0.3"/>
   </g>
   <g id="patch_10">
    <path d="M 306.845725 249.06341 
L 154.448599 203.766712 
L 224.055765 193.680868 
z
" clip-path="url(#p234df2e76f)" style="fill: #4682b4; opacity: 0.3"/>
   </g>
   <g id="patch_11">
    <path d="M 405.490457 266.58156 
L 275.312587 179.605157 
L 293.371184 332.308398 
z
" clip-path="url(#p234df2e76f)" style="fill: #4682b4; opacity: 0.3"/>
   </g>
   <g id="patch_12">
    <path d="M 206.687195 99.581657 
L 353.191335 190.319066 
L 224.055765 193.680868 
z
" clip-path="url(#p234df2e76f)" style="fill: #4682b4; opacity: 0.3"/>
   </g>
   <g id="patch_13">
    <path d="M 131.275081 146.820475 
L 275.312587 179.605157 
L 147.603612 251.696151 
z
" clip-path="url(#p234df2e76f)" style="fill: #4682b4; opacity: 0.3"/>
   </g>
   <g id="patch_14">
    <path d="M 405.490457 266.58156 
L 336.889505 355.264001 
L 256.401768 357.608638 
z
" clip-path="url(#p234df2e76f)" style="fill: #4682b4; opacity: 0.3"/>
   </g>
   <g id="patch_15">
    <path d="M 304.082916 125.144493 
L 275.312587 179.605157 
L 224.055765 193.680868 
z
" clip-path="url(#p234df2e76f)" style="fill: #4682b4; opacity: 0.3"/>
   </g>
   <g id="patch_16">
    <path d="M 136.772603 322.293781 
L 264.924171 280.10999 
L 194.40572 409.707692 
z
" clip-path="url(#p234df2e76f)" style="fill: #4682b4; opacity: 0.3"/>
   </g>
   <g id="patch_17">
    <path d="M 136.772603 322.293781 
L 306.845725 249.06341 
L 293.371184 332.308398 
z
" clip-path="url(#p234df2e76f)" style="fill: #4682b4; opacity: 0.3"/>
   </g>
   <g id="matplotlib.axis_1"/>
   <g id="matplotlib.axis_2"/>
   <g id="line2d_1">
    <path d="M 131.275081 146.820475 
L 16.119021 235.964004 
" clip-path="url(#p234df2e76f)" style="fill: none; stroke: #000000; stroke-linecap: square"/>
   </g>
   <g id="line2d_2">
    <path d="M 131.275081 146.820475 
L 147.603612 251.696151 
" clip-path="url(#p234df2e76f)" style="fill: none; stroke: #000000; stroke-linecap: square"/>
   </g>
   <g id="line2d_3">
    <path d="M 131.275081 146.820475 
L 206.687195 99.581657 
" clip-path="url(#p234df2e76f)" style="fill: none; stroke: #000000; stroke-linecap: square"/>
   </g>
   <g id="line2d_4">
    <path d="M 131.275081 146.820475 
L 304.082916 125.144493 
" clip-path="url(#p234df2e76f)" style="fill: none; stroke: #000000; stroke-linecap: square"/>
   </g>
   <g id="line2d_5">
    <path d="M 131.275081 146.820475 
L 275.312587 179.605157 
" clip-path="url(#p234df2e76f)" style="fill: none; stroke: #000000; stroke-linecap: square"/>
   </g>
   <g id="line2d_6">
    <path d="M 131.275081 146.820475 
L 192.878574 314.466318 
" clip-path="url(#p234df2e76f)" style="fill: none; stroke: #000000; stroke-linecap: square"/>
   </g>
   <g id="line2d_7">
    <path d="M 357.774569 39.541595 
L 206.687195 99.581657 
" clip-path="url(#p234df2e76f)" style="fill: none; stroke: #000000; stroke-linecap: square"/>
   </g>
   <g id="line2d_8">
    <path d="M 357.774569 39.541595 
L 353.191335 190.319066 
" clip-path="url(#p234df2e76f)" style="fill: none; stroke: #000000; stroke-linecap: square"/>
   </g>
   <g id="line2d_9">
    <path d="M 357.774569 39.541595 
L 261.244891 15.092308 
" clip-path="url(#p234df2e76f)" style="fill: none; stroke: #000000; stroke-linecap: square"/>
   </g>
   <g id="line2d_10">
    <path d="M 405.490457 266.58156 
L 293.371184 332.308398 
" clip-path="url(#p234df2e76f)" style="fill: none; stroke: #000000; stroke-linecap: square"/>
   </g>
   <g id="line2d_11">
    <path d="M 405.490457 266.58156 
L 256.401768 357.608638 
" clip-path="url(#p234df2e76f)" style="fill: none; stroke: #000000; stroke-linecap: square"/>
   </g>
   <g id="line2d_12">
    <path d="M 405.490457 266.58156 
L 304.082916 125.144493 
" clip-path="url(#p234df2e76f)" style="fill: none; stroke: #000000; stroke-linecap: square"/>
   </g>
   <g id="line2d_13">
    <path d="M 405.490457 266.58156 
L 275.312587 179.605157 
" clip-path="url(#p234df2e76f)" style="fill: none; stroke: #000000; stroke-linecap: square"/>
   </g>
   <g id="line2d_14">
    <path d="M 405.490457 266.58156 
L 336.889505 355.264001 
" clip-path="url(#p234df2e76f)" style="fill: none; stroke: #000000; stroke-linecap: square"/>
   </g>
   <g id="line2d_15">
    <path d="M 136.772603 322.293781 
L 16.119021 235.964004 
" clip-path="url(#p234df2e76f)" style="fill: none; stroke: #000000; stroke-linecap: square"/>
   </g>
   <g id="line2d_16">
    <path d="M 136.772603 322.293781 
L 154.448599 203.766712 
" clip-path="url(#p234df2e76f)" style="fill: none; stroke: #000000; stroke-linecap: square"/>
   </g>
   <g id="line2d_17">
    <path d="M 136.772603 322.293781 
L 293.371184 332.308398 
" clip-path="url(#p234df2e76f)" style="fill: none; stroke: #000000; stroke-linecap: square"/>
   </g>
   <g id="line2d_18">
    <path d="M 136.772603 322.293781 
L 306.845725 249.06341 
" clip-path="url(#p234df2e76f)" style="fill: none; stroke: #000000; stroke-linecap: square"/>
   </g>
   <g id="line2d_19">
    <path d="M 136.772603 322.293781 
L 15.009617 314.072594 
" clip-path="url(#p234df2e76f)" style="fill: none; stroke: #000000; stroke-linecap: square"/>
   </g>
   <g id="line2d_20">
    <path d="M 136.772603 322.293781 
L 256.401768 357.608638 
" clip-path="url(#p234df2e76f)" style="fill: none; stroke: #000000; stroke-linecap: square"/>
   </g>
   <g id="line2d_21">
    <path d="M 136.772603 322.293781 
L 56.679301 176.898853 
" clip-path="url(#p234df2e76f)" style="fill: none; stroke: #000000; stroke-linecap: square"/>
   </g>
   <g id="line2d_22">
    <path d="M 136.772603 322.293781 
L 264.924171 280.10999 
" clip-path="url(#p234df2e76f)" style="fill: none; stroke: #000000; stroke-linecap: square"/>
   </g>
   <g id="line2d_23">
    <path d="M 136.772603 322.293781 
L 194.40572 409.707692 
" clip-path="url(#p234df2e76f)" style="fill: none; stroke: #000000; stroke-linecap: square"/>
   </g>
   <g id="line2d_24">
    <path d="M 206.687195 99.581657 
L 154.448599 203.766712 
" clip-path="url(#p234df2e76f)" style="fill: none; stroke: #000000; stroke-linecap: square"/>
   </g>
   <g id="line2d_25">
    <path d="M 206.687195 99.581657 
L 147.603612 251.696151 
" clip-path="url(#p234df2e76f)" style="fill: none; stroke: #000000; stroke-linecap: square"/>
   </g>
   <g id="line2d_26">
    <path d="M 206.687195 99.581657 
L 353.191335 190.319066 
" clip-path="url(#p234df2e76f)" style="fill: none; stroke: #000000; stroke-linecap: square"/>
   </g>
   <g id="line2d_27">
    <path d="M 206.687195 99.581657 
L 224.055765 193.680868 
" clip-path="url(#p234df2e76f)" style="fill: none; stroke: #000000; stroke-linecap: square"/>
   </g>
   <g id="line2d_28">
    <path d="M 206.687195 99.581657 
L 261.244891 15.092308 
" clip-path="url(#p234df2e76f)" style="fill: none; stroke: #000000; stroke-linecap: square"/>
   </g>
   <g id="line2d_29">
    <path d="M 206.687195 99.581657 
L 56.679301 176.898853 
" clip-path="url(#p234df2e76f)" style="fill: none; stroke: #000000; stroke-linecap: square"/>
   </g>
   <g id="line2d_30">
    <path d="M 306.845725 249.06341 
L 154.448599 203.766712 
" clip-path="url(#p234df2e76f)" style="fill: none; stroke: #000000; stroke-linecap: square"/>
   </g>
   <g id="line2d_31">
    <path d="M 306.845725 249.06341 
L 293.371184 332.308398 
" clip-path="url(#p234df2e76f)" style="fill: none; stroke: #000000; stroke-linecap: square"/>
   </g>
   <g id="line2d_32">
    <path d="M 306.845725 249.06341 
L 224.055765 193.680868 
" clip-path="url(#p234df2e76f)" style="fill: none; stroke: #000000; stroke-linecap: square"/>
   </g>
   <g id="line2d_33">
    <path d="M 306.845725 249.06341 
L 256.401768 357.608638 
" clip-path="url(#p234df2e76f)" style="fill: none; stroke: #000000; stroke-linecap: square"/>
   </g>
   <g id="line2d_34">
    <path d="M 306.845725 249.06341 
L 304.082916 125.144493 
" clip-path="url(#p234df2e76f)" style="fill: none; stroke: #000000; stroke-linecap: square"/>
   </g>
   <g id="line2d_35">
    <path d="M 306.845725 249.06341 
L 264.924171 280.10999 
" clip-path="url(#p234df2e76f)" style="fill: none; stroke: #000000; stroke-linecap: square"/>
   </g>
   <g id="line2d_36">
    <path d="M 306.845725 249.06341 
L 275.312587 179.605157 
" clip-path="url(#p234df2e76f)" style="fill: none; stroke: #000000; stroke-linecap: square"/>
   </g>
   <g id="line2d_37">
    <path d="M 15.009617 314.072594 
L 16.119021 235.964004 
" clip-path="url(#p234df2e76f)" style="fill: none; stroke: #000000; stroke-linecap: square"/>
   </g>
   <g id="line2d_38">
    <path d="M 15.009617 314.072594 
L 95.207707 357.925021 
" clip-path="url(#p234df2e76f)" style="fill: none; stroke: #000000; stroke-linecap: square"/>
   </g>
   <g id="line2d_39">
    <path d="M 15.009617 314.072594 
L 147.603612 251.696151 
" clip-path="url(#p234df2e76f)" style="fill: none; stroke: #000000; stroke-linecap: square"/>
   </g>
   <g id="line2d_40">
    <path d="M 15.009617 314.072594 
L 56.679301 176.898853 
" clip-path="url(#p234df2e76f)" style="fill: none; stroke: #000000; stroke-linecap: square"/>
   </g>
   <g id="line2d_41">
    <path d="M 261.244891 15.092308 
L 224.055765 193.680868 
" clip-path="url(#p234df2e76f)" style="fill: none; stroke: #000000; stroke-linecap: square"/>
   </g>
   <g id="line2d_42">
    <path d="M 261.244891 15.092308 
L 304.082916 125.144493 
" clip-path="url(#p234df2e76f)" style="fill: none; stroke: #000000; stroke-linecap: square"/>
   </g>
   <g id="line2d_43">
    <path d="M 304.082916 125.144493 
L 224.055765 193.680868 
" clip-path="url(#p234df2e76f)" style="fill: none; stroke: #000000; stroke-linecap: square"/>
   </g>
   <g id="line2d_44">
    <path d="M 304.082916 125.144493 
L 264.924171 280.10999 
" clip-path="url(#p234df2e76f)" style="fill: none; stroke: #000000; stroke-linecap: square"/>
   </g>
   <g id="line2d_45">
    <path d="M 304.082916 125.144493 
L 275.312587 179.605157 
" clip-path="url(#p234df2e76f)" style="fill: none; stroke: #000000; stroke-linecap: square"/>
   </g>
   <g id="line2d_46">
    <path d="M 304.082916 125.144493 
L 157.319941 80.68256 
" clip-path="url(#p234df2e76f)" style="fill: none; stroke: #000000; stroke-linecap: square"/>
   </g>
   <g id="line2d_47">
    <path d="M 56.679301 176.898853 
L 16.119021 235.964004 
" clip-path="url(#p234df2e76f)" style="fill: none; stroke: #000000; stroke-linecap: square"/>
   </g>
   <g id="line2d_48">
    <path d="M 56.679301 176.898853 
L 154.448599 203.766712 
" clip-path="url(#p234df2e76f)" style="fill: none; stroke: #000000; stroke-linecap: square"/>
   </g>
   <g id="line2d_49">
    <path d="M 56.679301 176.898853 
L 147.603612 251.696151 
" clip-path="url(#p234df2e76f)" style="fill: none; stroke: #000000; stroke-linecap: square"/>
   </g>
   <g id="line2d_50">
    <path d="M 264.924171 280.10999 
L 353.191335 190.319066 
" clip-path="url(#p234df2e76f)" style="fill: none; stroke: #000000; stroke-linecap: square"/>
   </g>
   <g id="line2d_51">
    <path d="M 264.924171 280.10999 
L 224.055765 193.680868 
" clip-path="url(#p234df2e76f)" style="fill: none; stroke: #000000; stroke-linecap: square"/>
   </g>
   <g id="line2d_52">
    <path d="M 264.924171 280.10999 
L 275.312587 179.605157 
" clip-path="url(#p234df2e76f)" style="fill: none; stroke: #000000; stroke-linecap: square"/>
   </g>
   <g id="line2d_53">
    <path d="M 264.924171 280.10999 
L 194.40572 409.707692 
" clip-path="url(#p234df2e76f)" style="fill: none; stroke: #000000; stroke-linecap: square"/>
   </g>
   <g id="line2d_54">
    <path d="M 275.312587 179.605157 
L 147.603612 251.696151 
" clip-path="url(#p234df2e76f)" style="fill: none; stroke: #000000; stroke-linecap: square"/>
   </g>
   <g id="line2d_55">
    <path d="M 275.312587 179.605157 
L 293.371184 332.308398 
" clip-path="url(#p234df2e76f)" style="fill: none; stroke: #000000; stroke-linecap: square"/>
   </g>
   <g id="line2d_56">
    <path d="M 275.312587 179.605157 
L 353.191335 190.319066 
" clip-path="url(#p234df2e76f)" style="fill: none; stroke: #000000; stroke-linecap: square"/>
   </g>
   <g id="line2d_57">
    <path d="M 275.312587 179.605157 
L 224.055765 193.680868 
" clip-path="url(#p234df2e76f)" style="fill: none; stroke: #000000; stroke-linecap: square"/>
   </g>
   <g id="line2d_58">
    <path d="M 275.312587 179.605157 
L 157.319941 80.68256 
" clip-path="url(#p234df2e76f)" style="fill: none; stroke: #000000; stroke-linecap: square"/>
   </g>
   <g id="line2d_59">
    <path d="M 157.319941 80.68256 
L 147.603612 251.696151 
" clip-path="url(#p234df2e76f)" style="fill: none; stroke: #000000; stroke-linecap: square"/>
   </g>
   <g id="line2d_60">
    <path d="M 336.889505 355.264001 
L 147.603612 251.696151 
" clip-path="url(#p234df2e76f)" style="fill: none; stroke: #000000; stroke-linecap: square"/>
   </g>
   <g id="line2d_61">
    <path d="M 336.889505 355.264001 
L 353.191335 190.319066 
" clip-path="url(#p234df2e76f)" style="fill: none; stroke: #000000; stroke-linecap: square"/>
   </g>
   <g id="line2d_62">
    <path d="M 336.889505 355.264001 
L 256.401768 357.608638 
" clip-path="url(#p234df2e76f)" style="fill: none; stroke: #000000; stroke-linecap: square"/>
   </g>
   <g id="line2d_63">
    <path d="M 336.889505 355.264001 
L 194.40572 409.707692 
" clip-path="url(#p234df2e76f)" style="fill: none; stroke: #000000; stroke-linecap: square"/>
   </g>
   <g id="line2d_64">
    <path d="M 194.40572 409.707692 
L 95.207707 357.925021 
" clip-path="url(#p234df2e76f)" style="fill: none; stroke: #000000; stroke-linecap: square"/>
   </g>
   <g id="line2d_65">
    <path d="M 194.40572 409.707692 
L 147.603612 251.696151 
" clip-path="url(#p234df2e76f)" style="fill: none; stroke: #000000; stroke-linecap: square"/>
   </g>
   <g id="line2d_66">
    <path d="M 194.40572 409.707692 
L 192.878574 314.466318 
" clip-path="url(#p234df2e76f)" style="fill: none; stroke: #000000; stroke-linecap: square"/>
   </g>
   <g id="line2d_67">
    <path d="M 192.878574 314.466318 
L 95.207707 357.925021 
" clip-path="url(#p234df2e76f)" style="fill: none; stroke: #000000; stroke-linecap: square"/>
   </g>
   <g id="line2d_68">
    <path d="M 192.878574 314.466318 
L 147.603612 251.696151 
" clip-path="url(#p234df2e76f)" style="fill: none; stroke: #000000; stroke-linecap: square"/>
   </g>
   <g id="line2d_69">
    <path d="M 192.878574 314.466318 
L 353.191335 190.319066 
" clip-path="url(#p234df2e76f)" style="fill: none; stroke: #000000; stroke-linecap: square"/>
   </g>
   <g id="line2d_70">
    <path d="M 16.119021 235.964004 
L 147.603612 251.696151 
" clip-path="url(#p234df2e76f)" style="fill: none; stroke: #000000; stroke-linecap: square"/>
   </g>
   <g id="line2d_71">
    <path d="M 95.207707 357.925021 
L 147.603612 251.696151 
" clip-path="url(#p234df2e76f)" style="fill: none; stroke: #000000; stroke-linecap: square"/>
   </g>
   <g id="line2d_72">
    <path d="M 95.207707 357.925021 
L 224.055765 193.680868 
" clip-path="url(#p234df2e76f)" style="fill: none; stroke: #000000; stroke-linecap: square"/>
   </g>
   <g id="line2d_73">
    <path d="M 154.448599 203.766712 
L 293.371184 332.308398 
" clip-path="url(#p234df2e76f)" style="fill: none; stroke: #000000; stroke-linecap: square"/>
   </g>
   <g id="line2d_74">
    <path d="M 154.448599 203.766712 
L 224.055765 193.680868 
" clip-path="url(#p234df2e76f)" style="fill: none; stroke: #000000; stroke-linecap: square"/>
   </g>
   <g id="line2d_75">
    <path d="M 147.603612 251.696151 
L 224.055765 193.680868 
" clip-path="url(#p234df2e76f)" style="fill: none; stroke: #000000; stroke-linecap: square"/>
   </g>
   <g id="line2d_76">
    <path d="M 147.603612 251.696151 
L 256.401768 357.608638 
" clip-path="url(#p234df2e76f)" style="fill: none; stroke: #000000; stroke-linecap: square"/>
   </g>
   <g id="line2d_77">
    <path d="M 353.191335 190.319066 
L 224.055765 193.680868 
" clip-path="url(#p234df2e76f)" style="fill: none; stroke: #000000; stroke-linecap: square"/>
   </g>
   <g id="line2d_78">
    <path d="M 224.055765 193.680868 
L 256.401768 357.608638 
" clip-path="url(#p234df2e76f)" style="fill: none; stroke: #000000; stroke-linecap: square"/>
   </g>
   <g id="PathCollection_1">
    <defs>
     <path id="mb9baa81457" d="M 0 7.071068 
C 1.875269 7.071068 3.673985 6.326016 5 5 
C 6.326016 3.673985 7.071068 1.875269 7.071068 0 
C 7.071068 -1.875269 6.326016 -3.673985 5 -5 
C 3.673985 -6.326016 1.875269 -7.071068 0 -7.071068 
C -1.875269 -7.071068 -3.673985 -6.326016 -5 -5 
C -6.326016 -3.673985 -7.071068 -1.875269 -7.071068 0 
C -7.071068 1.875269 -6.326016 3.673985 -5 5 
C -3.673985 6.326016 -1.875269 7.071068 0 7.071068 
z
" style="stroke: #000000"/>
    </defs>
    <g>
     <use xlink:href="#mb9baa81457" x="131.275081" y="146.820475" style="fill: #fec7b8; stroke: #000000"/>
     <use xlink:href="#mb9baa81457" x="357.774569" y="39.541595" style="fill: #fec7b8; stroke: #000000"/>
     <use xlink:href="#mb9baa81457" x="405.490457" y="266.58156" style="fill: #fec7b8; stroke: #000000"/>
     <use xlink:href="#mb9baa81457" x="136.772603" y="322.293781" style="fill: #fec7b8; stroke: #000000"/>
     <use xlink:href="#mb9baa81457" x="206.687195" y="99.581657" style="fill: #fec7b8; stroke: #000000"/>
     <use xlink:href="#mb9baa81457" x="306.845725" y="249.06341" style="fill: #fec7b8; stroke: #000000"/>
     <use xlink:href="#mb9baa81457" x="15.009617" y="314.072594" style="fill: #fec7b8; stroke: #000000"/>
     <use xlink:href="#mb9baa81457" x="261.244891" y="15.092308" style="fill: #fec7b8; stroke: #000000"/>
     <use xlink:href="#mb9baa81457" x="304.082916" y="125.144493" style="fill: #fec7b8; stroke: #000000"/>
     <use xlink:href="#mb9baa81457" x="56.679301" y="176.898853" style="fill: #fec7b8; stroke: #000000"/>
     <use xlink:href="#mb9baa81457" x="264.924171" y="280.10999" style="fill: #fec7b8; stroke: #000000"/>
     <use xlink:href="#mb9baa81457" x="275.312587" y="179.605157" style="fill: #fec7b8; stroke: #000000"/>
     <use xlink:href="#mb9baa81457" x="157.319941" y="80.68256" style="fill: #fec7b8; stroke: #000000"/>
     <use xlink:href="#mb9baa81457" x="336.889505" y="355.264001" style="fill: #fec7b8; stroke: #000000"/>
     <use xlink:href="#mb9baa81457" x="194.40572" y="409.707692" style="fill: #fec7b8; stroke: #000000"/>
     <use xlink:href="#mb9baa81457" x="192.878574" y="314.466318" style="fill: #fec7b8; stroke: #000000"/>
     <use xlink:href="#mb9baa81457" x="16.119021" y="235.964004" style="fill: #fec7b8; stroke: #000000"/>
     <use xlink:href="#mb9baa81457" x="95.207707" y="357.925021" style="fill: #fec7b8; stroke: #000000"/>
     <use xlink:href="#mb9baa81457" x="154.448599" y="203.766712" style="fill: #fec7b8; stroke: #000000"/>
     <use xlink:href="#mb9baa81457" x="147.603612" y="251.696151" style="fill: #fec7b8; stroke: #000000"/>
     <use xlink:href="#mb9baa81457" x="293.371184" y="332.308398" style="fill: #fec7b8; stroke: #000000"/>
     <use xlink:href="#mb9baa81457" x="353.191335" y="190.319066" style="fill: #fec7b8; stroke: #000000"/>
     <use xlink:href="#mb9baa81457" x="224.055765" y="193.680868" style="fill: #fec7b8; stroke: #000000"/>
     <use xlink:href="#mb9baa81457" x="256.401768" y="357.608638" style="fill: #fec7b8; stroke: #000000"/>
    </g>
   </g>
   <g id="text_1">
    <!-- 0 -->
    <g transform="translate(128.093831 149.57985) scale(0.1 -0.1)">
     <defs>
      <path id="DejaVuSans-30" d="M 2034 4250 
Q 1547 4250 1301 3770 
Q 1056 3291 1056 2328 
Q 1056 1369 1301 889 
Q 1547 409 2034 409 
Q 2525 409 2770 889 
Q 3016 1369 3016 2328 
Q 3016 3291 2770 3770 
Q 2525 4250 2034 4250 
z
M 2034 4750 
Q 2819 4750 3233 4129 
Q 3647 3509 3647 2328 
Q 3647 1150 3233 529 
Q 2819 -91 2034 -91 
Q 1250 -91 836 529 
Q 422 1150 422 2328 
Q 422 3509 836 4129 
Q 1250 4750 2034 4750 
z
" transform="scale(0.015625)"/>
     </defs>
     <use xlink:href="#DejaVuSans-30"/>
    </g>
   </g>
   <g id="text_2">
    <!-- 1 -->
    <g transform="translate(354.593319 42.30097) scale(0.1 -0.1)">
     <defs>
      <path id="DejaVuSans-31" d="M 794 531 
L 1825 531 
L 1825 4091 
L 703 3866 
L 703 4441 
L 1819 4666 
L 2450 4666 
L 2450 531 
L 3481 531 
L 3481 0 
L 794 0 
L 794 531 
z
" transform="scale(0.015625)"/>
     </defs>
     <use xlink:href="#DejaVuSans-31"/>
    </g>
   </g>
   <g id="text_3">
    <!-- 2 -->
    <g transform="translate(402.309207 269.340935) scale(0.1 -0.1)">
     <defs>
      <path id="DejaVuSans-32" d="M 1228 531 
L 3431 531 
L 3431 0 
L 469 0 
L 469 531 
Q 828 903 1448 1529 
Q 2069 2156 2228 2338 
Q 2531 2678 2651 2914 
Q 2772 3150 2772 3378 
Q 2772 3750 2511 3984 
Q 2250 4219 1831 4219 
Q 1534 4219 1204 4116 
Q 875 4013 500 3803 
L 500 4441 
Q 881 4594 1212 4672 
Q 1544 4750 1819 4750 
Q 2544 4750 2975 4387 
Q 3406 4025 3406 3419 
Q 3406 3131 3298 2873 
Q 3191 2616 2906 2266 
Q 2828 2175 2409 1742 
Q 1991 1309 1228 531 
z
" transform="scale(0.015625)"/>
     </defs>
     <use xlink:href="#DejaVuSans-32"/>
    </g>
   </g>
   <g id="text_4">
    <!-- 3 -->
    <g transform="translate(133.591353 325.053156) scale(0.1 -0.1)">
     <defs>
      <path id="DejaVuSans-33" d="M 2597 2516 
Q 3050 2419 3304 2112 
Q 3559 1806 3559 1356 
Q 3559 666 3084 287 
Q 2609 -91 1734 -91 
Q 1441 -91 1130 -33 
Q 819 25 488 141 
L 488 750 
Q 750 597 1062 519 
Q 1375 441 1716 441 
Q 2309 441 2620 675 
Q 2931 909 2931 1356 
Q 2931 1769 2642 2001 
Q 2353 2234 1838 2234 
L 1294 2234 
L 1294 2753 
L 1863 2753 
Q 2328 2753 2575 2939 
Q 2822 3125 2822 3475 
Q 2822 3834 2567 4026 
Q 2313 4219 1838 4219 
Q 1578 4219 1281 4162 
Q 984 4106 628 3988 
L 628 4550 
Q 988 4650 1302 4700 
Q 1616 4750 1894 4750 
Q 2613 4750 3031 4423 
Q 3450 4097 3450 3541 
Q 3450 3153 3228 2886 
Q 3006 2619 2597 2516 
z
" transform="scale(0.015625)"/>
     </defs>
     <use xlink:href="#DejaVuSans-33"/>
    </g>
   </g>
   <g id="text_5">
    <!-- 4 -->
    <g transform="translate(203.505945 102.341032) scale(0.1 -0.1)">
     <defs>
      <path id="DejaVuSans-34" d="M 2419 4116 
L 825 1625 
L 2419 1625 
L 2419 4116 
z
M 2253 4666 
L 3047 4666 
L 3047 1625 
L 3713 1625 
L 3713 1100 
L 3047 1100 
L 3047 0 
L 2419 0 
L 2419 1100 
L 313 1100 
L 313 1709 
L 2253 4666 
z
" transform="scale(0.015625)"/>
     </defs>
     <use xlink:href="#DejaVuSans-34"/>
    </g>
   </g>
   <g id="text_6">
    <!-- 5 -->
    <g transform="translate(303.664475 251.822785) scale(0.1 -0.1)">
     <defs>
      <path id="DejaVuSans-35" d="M 691 4666 
L 3169 4666 
L 3169 4134 
L 1269 4134 
L 1269 2991 
Q 1406 3038 1543 3061 
Q 1681 3084 1819 3084 
Q 2600 3084 3056 2656 
Q 3513 2228 3513 1497 
Q 3513 744 3044 326 
Q 2575 -91 1722 -91 
Q 1428 -91 1123 -41 
Q 819 9 494 109 
L 494 744 
Q 775 591 1075 516 
Q 1375 441 1709 441 
Q 2250 441 2565 725 
Q 2881 1009 2881 1497 
Q 2881 1984 2565 2268 
Q 2250 2553 1709 2553 
Q 1456 2553 1204 2497 
Q 953 2441 691 2322 
L 691 4666 
z
" transform="scale(0.015625)"/>
     </defs>
     <use xlink:href="#DejaVuSans-35"/>
    </g>
   </g>
   <g id="text_7">
    <!-- 6 -->
    <g transform="translate(11.828367 316.831969) scale(0.1 -0.1)">
     <defs>
      <path id="DejaVuSans-36" d="M 2113 2584 
Q 1688 2584 1439 2293 
Q 1191 2003 1191 1497 
Q 1191 994 1439 701 
Q 1688 409 2113 409 
Q 2538 409 2786 701 
Q 3034 994 3034 1497 
Q 3034 2003 2786 2293 
Q 2538 2584 2113 2584 
z
M 3366 4563 
L 3366 3988 
Q 3128 4100 2886 4159 
Q 2644 4219 2406 4219 
Q 1781 4219 1451 3797 
Q 1122 3375 1075 2522 
Q 1259 2794 1537 2939 
Q 1816 3084 2150 3084 
Q 2853 3084 3261 2657 
Q 3669 2231 3669 1497 
Q 3669 778 3244 343 
Q 2819 -91 2113 -91 
Q 1303 -91 875 529 
Q 447 1150 447 2328 
Q 447 3434 972 4092 
Q 1497 4750 2381 4750 
Q 2619 4750 2861 4703 
Q 3103 4656 3366 4563 
z
" transform="scale(0.015625)"/>
     </defs>
     <use xlink:href="#DejaVuSans-36"/>
    </g>
   </g>
   <g id="text_8">
    <!-- 7 -->
    <g transform="translate(258.063641 17.851683) scale(0.1 -0.1)">
     <defs>
      <path id="DejaVuSans-37" d="M 525 4666 
L 3525 4666 
L 3525 4397 
L 1831 0 
L 1172 0 
L 2766 4134 
L 525 4134 
L 525 4666 
z
" transform="scale(0.015625)"/>
     </defs>
     <use xlink:href="#DejaVuSans-37"/>
    </g>
   </g>
   <g id="text_9">
    <!-- 8 -->
    <g transform="translate(300.901666 127.903868) scale(0.1 -0.1)">
     <defs>
      <path id="DejaVuSans-38" d="M 2034 2216 
Q 1584 2216 1326 1975 
Q 1069 1734 1069 1313 
Q 1069 891 1326 650 
Q 1584 409 2034 409 
Q 2484 409 2743 651 
Q 3003 894 3003 1313 
Q 3003 1734 2745 1975 
Q 2488 2216 2034 2216 
z
M 1403 2484 
Q 997 2584 770 2862 
Q 544 3141 544 3541 
Q 544 4100 942 4425 
Q 1341 4750 2034 4750 
Q 2731 4750 3128 4425 
Q 3525 4100 3525 3541 
Q 3525 3141 3298 2862 
Q 3072 2584 2669 2484 
Q 3125 2378 3379 2068 
Q 3634 1759 3634 1313 
Q 3634 634 3220 271 
Q 2806 -91 2034 -91 
Q 1263 -91 848 271 
Q 434 634 434 1313 
Q 434 1759 690 2068 
Q 947 2378 1403 2484 
z
M 1172 3481 
Q 1172 3119 1398 2916 
Q 1625 2713 2034 2713 
Q 2441 2713 2670 2916 
Q 2900 3119 2900 3481 
Q 2900 3844 2670 4047 
Q 2441 4250 2034 4250 
Q 1625 4250 1398 4047 
Q 1172 3844 1172 3481 
z
" transform="scale(0.015625)"/>
     </defs>
     <use xlink:href="#DejaVuSans-38"/>
    </g>
   </g>
   <g id="text_10">
    <!-- 9 -->
    <g transform="translate(53.498051 179.658228) scale(0.1 -0.1)">
     <defs>
      <path id="DejaVuSans-39" d="M 703 97 
L 703 672 
Q 941 559 1184 500 
Q 1428 441 1663 441 
Q 2288 441 2617 861 
Q 2947 1281 2994 2138 
Q 2813 1869 2534 1725 
Q 2256 1581 1919 1581 
Q 1219 1581 811 2004 
Q 403 2428 403 3163 
Q 403 3881 828 4315 
Q 1253 4750 1959 4750 
Q 2769 4750 3195 4129 
Q 3622 3509 3622 2328 
Q 3622 1225 3098 567 
Q 2575 -91 1691 -91 
Q 1453 -91 1209 -44 
Q 966 3 703 97 
z
M 1959 2075 
Q 2384 2075 2632 2365 
Q 2881 2656 2881 3163 
Q 2881 3666 2632 3958 
Q 2384 4250 1959 4250 
Q 1534 4250 1286 3958 
Q 1038 3666 1038 3163 
Q 1038 2656 1286 2365 
Q 1534 2075 1959 2075 
z
" transform="scale(0.015625)"/>
     </defs>
     <use xlink:href="#DejaVuSans-39"/>
    </g>
   </g>
   <g id="text_11">
    <!-- 10 -->
    <g transform="translate(258.561671 282.869365) scale(0.1 -0.1)">
     <use xlink:href="#DejaVuSans-31"/>
     <use xlink:href="#DejaVuSans-30" x="63.623047"/>
    </g>
   </g>
   <g id="text_12">
    <!-- 11 -->
    <g transform="translate(268.950087 182.364532) scale(0.1 -0.1)">
     <use xlink:href="#DejaVuSans-31"/>
     <use xlink:href="#DejaVuSans-31" x="63.623047"/>
    </g>
   </g>
   <g id="text_13">
    <!-- 12 -->
    <g transform="translate(150.957441 83.441935) scale(0.1 -0.1)">
     <use xlink:href="#DejaVuSans-31"/>
     <use xlink:href="#DejaVuSans-32" x="63.623047"/>
    </g>
   </g>
   <g id="text_14">
    <!-- 13 -->
    <g transform="translate(330.527005 358.023376) scale(0.1 -0.1)">
     <use xlink:href="#DejaVuSans-31"/>
     <use xlink:href="#DejaVuSans-33" x="63.623047"/>
    </g>
   </g>
   <g id="text_15">
    <!-- 14 -->
    <g transform="translate(188.04322 412.467067) scale(0.1 -0.1)">
     <use xlink:href="#DejaVuSans-31"/>
     <use xlink:href="#DejaVuSans-34" x="63.623047"/>
    </g>
   </g>
   <g id="text_16">
    <!-- 15 -->
    <g transform="translate(186.516074 317.225693) scale(0.1 -0.1)">
     <use xlink:href="#DejaVuSans-31"/>
     <use xlink:href="#DejaVuSans-35" x="63.623047"/>
    </g>
   </g>
   <g id="text_17">
    <!-- 16 -->
    <g transform="translate(9.756521 238.723379) scale(0.1 -0.1)">
     <use xlink:href="#DejaVuSans-31"/>
     <use xlink:href="#DejaVuSans-36" x="63.623047"/>
    </g>
   </g>
   <g id="text_18">
    <!-- 17 -->
    <g transform="translate(88.845207 360.684396) scale(0.1 -0.1)">
     <use xlink:href="#DejaVuSans-31"/>
     <use xlink:href="#DejaVuSans-37" x="63.623047"/>
    </g>
   </g>
   <g id="text_19">
    <!-- 18 -->
    <g transform="translate(148.086099 206.526087) scale(0.1 -0.1)">
     <use xlink:href="#DejaVuSans-31"/>
     <use xlink:href="#DejaVuSans-38" x="63.623047"/>
    </g>
   </g>
   <g id="text_20">
    <!-- 19 -->
    <g transform="translate(141.241112 254.455526) scale(0.1 -0.1)">
     <use xlink:href="#DejaVuSans-31"/>
     <use xlink:href="#DejaVuSans-39" x="63.623047"/>
    </g>
   </g>
   <g id="text_21">
    <!-- 20 -->
    <g transform="translate(287.008684 335.067773) scale(0.1 -0.1)">
     <use xlink:href="#DejaVuSans-32"/>
     <use xlink:href="#DejaVuSans-30" x="63.623047"/>
    </g>
   </g>
   <g id="text_22">
    <!-- 21 -->
    <g transform="translate(346.828835 193.078441) scale(0.1 -0.1)">
     <use xlink:href="#DejaVuSans-32"/>
     <use xlink:href="#DejaVuSans-31" x="63.623047"/>
    </g>
   </g>
   <g id="text_23">
    <!-- 22 -->
    <g transform="translate(217.693265 196.440243) scale(0.1 -0.1)">
     <use xlink:href="#DejaVuSans-32"/>
     <use xlink:href="#DejaVuSans-32" x="63.623047"/>
    </g>
   </g>
   <g id="text_24">
    <!-- 23 -->
    <g transform="translate(250.039268 360.368013) scale(0.1 -0.1)">
     <use xlink:href="#DejaVuSans-32"/>
     <use xlink:href="#DejaVuSans-33" x="63.623047"/>
    </g>
   </g>
  </g>
 </g>
 <defs>
  <clipPath id="p234df2e76f">
   <rect x="7.2" y="7.2" width="406.100074" height="410.4"/>
  </clipPath>
 </defs>
</svg>
